<svg xmlns="http://www.w3.org/2000/svg" style="cursor: move;" width="1920" height="910">
<g>
<path class="link" style="stroke-width: 1.4px; stroke-opacity: 0.5528863819458344; stroke: rgb(114,114,255);" marker-end="" d="M730,312, 730,475">
</path>
<path class="link" style="stroke-width: 1.4px; stroke-opacity: 0.7403834623703379; stroke: rgb(66,66,255);" marker-end="" d="M730,312, 770,475">
</path>
<path class="link" style="stroke-width: 1.4px; stroke-opacity: 0.7809993167769393; stroke: rgb(255,55,55);" marker-end="" d="M730,312, 810,475">
</path>
<path class="link" style="stroke-width: 1.4px; stroke-opacity: 0.9405523126521355; stroke: rgb(15,15,255);" marker-end="" d="M730,312, 850,475">
</path>
<path class="link" style="stroke-width: 1.4px; stroke-opacity: 0.5865813017295208; stroke: rgb(105,105,255);" marker-end="" d="M730,312, 890,475">
</path>
<path class="link" style="stroke-width: 1.4px; stroke-opacity: 0.8207279074581394; stroke: rgb(45,45,255);" marker-end="" d="M730,312, 930,475">
</path>
<path class="link" style="stroke-width: 1.4px; stroke-opacity: 0.5975316392525198; stroke: rgb(102,102,255);" marker-end="" d="M730,312, 970,475">
</path>
<path class="link" style="stroke-width: 1.4px; stroke-opacity: 0.9902500959813268; stroke: rgb(2,2,255);" marker-end="" d="M730,312, 1010,475">
</path>
<path class="link" style="stroke-width: 1.4px; stroke-opacity: 0.137480531317742; stroke: rgb(219,219,255);" marker-end="" d="M730,312, 1050,475">
</path>
<path class="link" style="stroke-width: 1.4px; stroke-opacity: 0.8583813955181745; stroke: rgb(255,36,36);" marker-end="" d="M730,312, 1090,475">
</path>
<path class="link" style="stroke-width: 1.4px; stroke-opacity: 0.3044215233102642; stroke: rgb(177,177,255);" marker-end="" d="M770,312, 730,475">
</path>
<path class="link" style="stroke-width: 1.4px; stroke-opacity: 0.27112604694370945; stroke: rgb(185,185,255);" marker-end="" d="M770,312, 770,475">
</path>
<path class="link" style="stroke-width: 1.4px; stroke-opacity: 0.3695438683681145; stroke: rgb(255,160,160);" marker-end="" d="M770,312, 810,475">
</path>
<path class="link" style="stroke-width: 1.4px; stroke-opacity: 0.6616902697475854; stroke: rgb(255,86,86);" marker-end="" d="M770,312, 850,475">
</path>
<path class="link" style="stroke-width: 1.4px; stroke-opacity: 0.15257118100725658; stroke: rgb(255,216,216);" marker-end="" d="M770,312, 890,475">
</path>
<path class="link" style="stroke-width: 1.4px; stroke-opacity: 0.6197328094031168; stroke: rgb(96,96,255);" marker-end="" d="M770,312, 930,475">
</path>
<path class="link" style="stroke-width: 1.4px; stroke-opacity: 0.7060035847717465; stroke: rgb(74,74,255);" marker-end="" d="M770,312, 970,475">
</path>
<path class="link" style="stroke-width: 1.4px; stroke-opacity: 0.6935108833598629; stroke: rgb(255,78,78);" marker-end="" d="M770,312, 1010,475">
</path>
<path class="link" style="stroke-width: 1.4px; stroke-opacity: 0.19334491391986558; stroke: rgb(205,205,255);" marker-end="" d="M770,312, 1050,475">
</path>
<path class="link" style="stroke-width: 1.4px; stroke-opacity: 0.7851263788096385; stroke: rgb(54,54,255);" marker-end="" d="M770,312, 1090,475">
</path>
<path class="link" style="stroke-width: 1.4px; stroke-opacity: 0.8881594369653267; stroke: rgb(255,28,28);" marker-end="" d="M810,312, 730,475">
</path>
<path class="link" style="stroke-width: 1.4px; stroke-opacity: 0.7932550722054759; stroke: rgb(255,52,52);" marker-end="" d="M810,312, 770,475">
</path>
<path class="link" style="stroke-width: 1.4px; stroke-opacity: 0.459693930300919; stroke: rgb(255,137,137);" marker-end="" d="M810,312, 810,475">
</path>
<path class="link" style="stroke-width: 1.4px; stroke-opacity: 0.656502615594012; stroke: rgb(87,87,255);" marker-end="" d="M810,312, 850,475">
</path>
<path class="link" style="stroke-width: 1.4px; stroke-opacity: 0.32631636160752325; stroke: rgb(171,171,255);" marker-end="" d="M810,312, 890,475">
</path>
<path class="link" style="stroke-width: 1.4px; stroke-opacity: 0.20673288809541246; stroke: rgb(202,202,255);" marker-end="" d="M810,312, 930,475">
</path>
<path class="link" style="stroke-width: 1.4px; stroke-opacity: 0.6270175052301348; stroke: rgb(95,95,255);" marker-end="" d="M810,312, 970,475">
</path>
<path class="link" style="stroke-width: 1.4px; stroke-opacity: 0.5009490753484263; stroke: rgb(127,127,255);" marker-end="" d="M810,312, 1010,475">
</path>
<path class="link" style="stroke-width: 1.4px; stroke-opacity: 0.5513137675198461; stroke: rgb(255,114,114);" marker-end="" d="M810,312, 1050,475">
</path>
<path class="link" style="stroke-width: 1.4px; stroke-opacity: 0.8443384750673526; stroke: rgb(39,39,255);" marker-end="" d="M810,312, 1090,475">
</path>
<path class="link" style="stroke-width: 1.4px; stroke-opacity: 0.7397346601470361; stroke: rgb(66,66,255);" marker-end="" d="M850,312, 730,475">
</path>
<path class="link" style="stroke-width: 1.4px; stroke-opacity: 0.8267504961263837; stroke: rgb(255,44,44);" marker-end="" d="M850,312, 770,475">
</path>
<path class="link" style="stroke-width: 1.4px; stroke-opacity: 0.7761009649954439; stroke: rgb(255,57,57);" marker-end="" d="M850,312, 810,475">
</path>
<path class="link" style="stroke-width: 1.4px; stroke-opacity: 0.8647135345769513; stroke: rgb(255,34,34);" marker-end="" d="M850,312, 850,475">
</path>
<path class="link" style="stroke-width: 1.4px; stroke-opacity: 0.140618020537882; stroke: rgb(219,219,255);" marker-end="" d="M850,312, 890,475">
</path>
<path class="link" style="stroke-width: 1.4px; stroke-opacity: 0.3188436777900018; stroke: rgb(173,173,255);" marker-end="" d="M850,312, 930,475">
</path>
<path class="link" style="stroke-width: 1.4px; stroke-opacity: 0.21595214226359075; stroke: rgb(255,199,199);" marker-end="" d="M850,312, 970,475">
</path>
<path class="link" style="stroke-width: 1.4px; stroke-opacity: 0.1969396597240038; stroke: rgb(204,204,255);" marker-end="" d="M850,312, 1010,475">
</path>
<path class="link" style="stroke-width: 1.4px; stroke-opacity: 0.14069496805560136; stroke: rgb(219,219,255);" marker-end="" d="M850,312, 1050,475">
</path>
<path class="link" style="stroke-width: 1.4px; stroke-opacity: 0.5129419049936835; stroke: rgb(124,124,255);" marker-end="" d="M850,312, 1090,475">
</path>
<path class="link" style="stroke-width: 1.4px; stroke-opacity: 0.7711730138172364; stroke: rgb(58,58,255);" marker-end="" d="M890,312, 730,475">
</path>
<path class="link" style="stroke-width: 1.4px; stroke-opacity: 0.09504677830676986; stroke: rgb(230,230,255);" marker-end="" d="M890,312, 770,475">
</path>
<path class="link" style="stroke-width: 1.4px; stroke-opacity: 0.3101432552893828; stroke: rgb(175,175,255);" marker-end="" d="M890,312, 810,475">
</path>
<path class="link" style="stroke-width: 1.4px; stroke-opacity: 0.8447455613828916; stroke: rgb(255,39,39);" marker-end="" d="M890,312, 850,475">
</path>
<path class="link" style="stroke-width: 1.4px; stroke-opacity: 0.6292168624087279; stroke: rgb(94,94,255);" marker-end="" d="M890,312, 890,475">
</path>
<path class="link" style="stroke-width: 1.4px; stroke-opacity: 0.01996128515832264; stroke: rgb(249,249,255);" marker-end="" d="M890,312, 930,475">
</path>
<path class="link" style="stroke-width: 1.4px; stroke-opacity: 0.6542587564353772; stroke: rgb(88,88,255);" marker-end="" d="M890,312, 970,475">
</path>
<path class="link" style="stroke-width: 1.4px; stroke-opacity: 0.4781507216473796; stroke: rgb(133,133,255);" marker-end="" d="M890,312, 1010,475">
</path>
<path class="link" style="stroke-width: 1.4px; stroke-opacity: 0.5920721477047334; stroke: rgb(104,104,255);" marker-end="" d="M890,312, 1050,475">
</path>
<path class="link" style="stroke-width: 1.4px; stroke-opacity: 0.6202488309805985; stroke: rgb(255,96,96);" marker-end="" d="M890,312, 1090,475">
</path>
<path class="link" style="stroke-width: 1.4px; stroke-opacity: 0.9236147068109675; stroke: rgb(255,19,19);" marker-end="" d="M930,312, 730,475">
</path>
<path class="link" style="stroke-width: 1.4px; stroke-opacity: 0.831735433600417; stroke: rgb(255,42,42);" marker-end="" d="M930,312, 770,475">
</path>
<path class="link" style="stroke-width: 1.4px; stroke-opacity: 0.3831249585660335; stroke: rgb(157,157,255);" marker-end="" d="M930,312, 810,475">
</path>
<path class="link" style="stroke-width: 1.4px; stroke-opacity: 0.17827591609428137; stroke: rgb(255,209,209);" marker-end="" d="M930,312, 850,475">
</path>
<path class="link" style="stroke-width: 1.4px; stroke-opacity: 0.8347417025982277; stroke: rgb(42,42,255);" marker-end="" d="M930,312, 890,475">
</path>
<path class="link" style="stroke-width: 1.4px; stroke-opacity: 0.7025191275280609; stroke: rgb(75,75,255);" marker-end="" d="M930,312, 930,475">
</path>
<path class="link" style="stroke-width: 1.4px; stroke-opacity: 0.6425003033640682; stroke: rgb(255,91,91);" marker-end="" d="M930,312, 970,475">
</path>
<path class="link" style="stroke-width: 1.4px; stroke-opacity: 0.5974918084382491; stroke: rgb(102,102,255);" marker-end="" d="M930,312, 1010,475">
</path>
<path class="link" style="stroke-width: 1.4px; stroke-opacity: 0.8821874947016464; stroke: rgb(30,30,255);" marker-end="" d="M930,312, 1050,475">
</path>
<path class="link" style="stroke-width: 1.4px; stroke-opacity: 0.6873780978185532; stroke: rgb(79,79,255);" marker-end="" d="M930,312, 1090,475">
</path>
<path class="link" style="stroke-width: 1.4px; stroke-opacity: 0.08526875159399065; stroke: rgb(233,233,255);" marker-end="" d="M970,312, 730,475">
</path>
<path class="link" style="stroke-width: 1.4px; stroke-opacity: 0.20560075426059762; stroke: rgb(202,202,255);" marker-end="" d="M970,312, 770,475">
</path>
<path class="link" style="stroke-width: 1.4px; stroke-opacity: 0.5145144313729203; stroke: rgb(255,123,123);" marker-end="" d="M970,312, 810,475">
</path>
<path class="link" style="stroke-width: 1.4px; stroke-opacity: 0.185913471486859; stroke: rgb(255,207,207);" marker-end="" d="M970,312, 850,475">
</path>
<path class="link" style="stroke-width: 1.4px; stroke-opacity: 0.6488169379951053; stroke: rgb(255,89,89);" marker-end="" d="M970,312, 890,475">
</path>
<path class="link" style="stroke-width: 1.4px; stroke-opacity: 0.7196438313251005; stroke: rgb(71,71,255);" marker-end="" d="M970,312, 930,475">
</path>
<path class="link" style="stroke-width: 1.4px; stroke-opacity: 0.12383445237563782; stroke: rgb(255,223,223);" marker-end="" d="M970,312, 970,475">
</path>
<path class="link" style="stroke-width: 1.4px; stroke-opacity: 0.5455139356707586; stroke: rgb(115,115,255);" marker-end="" d="M970,312, 1010,475">
</path>
<path class="link" style="stroke-width: 1.4px; stroke-opacity: 0.6886515365734714; stroke: rgb(79,79,255);" marker-end="" d="M970,312, 1050,475">
</path>
<path class="link" style="stroke-width: 1.4px; stroke-opacity: 0.46686087744433585; stroke: rgb(135,135,255);" marker-end="" d="M970,312, 1090,475">
</path>
<path class="link" style="stroke-width: 1.4px; stroke-opacity: 0.5143447366475034; stroke: rgb(255,123,123);" marker-end="" d="M1010,312, 730,475">
</path>
<path class="link" style="stroke-width: 1.4px; stroke-opacity: 0.5282686128846814; stroke: rgb(120,120,255);" marker-end="" d="M1010,312, 770,475">
</path>
<path class="link" style="stroke-width: 1.4px; stroke-opacity: 0.29566741589179013; stroke: rgb(255,179,179);" marker-end="" d="M1010,312, 810,475">
</path>
<path class="link" style="stroke-width: 1.4px; stroke-opacity: 0.3472856588119756; stroke: rgb(255,166,166);" marker-end="" d="M1010,312, 850,475">
</path>
<path class="link" style="stroke-width: 1.4px; stroke-opacity: 0.2893342786019451; stroke: rgb(255,181,181);" marker-end="" d="M1010,312, 890,475">
</path>
<path class="link" style="stroke-width: 1.4px; stroke-opacity: 0.3746813457129232; stroke: rgb(159,159,255);" marker-end="" d="M1010,312, 930,475">
</path>
<path class="link" style="stroke-width: 1.4px; stroke-opacity: 0.7938157567183345; stroke: rgb(52,52,255);" marker-end="" d="M1010,312, 970,475">
</path>
<path class="link" style="stroke-width: 1.4px; stroke-opacity: 0.05306823146180728; stroke: rgb(255,241,241);" marker-end="" d="M1010,312, 1010,475">
</path>
<path class="link" style="stroke-width: 1.4px; stroke-opacity: 0.6696974707223902; stroke: rgb(84,84,255);" marker-end="" d="M1010,312, 1050,475">
</path>
<path class="link" style="stroke-width: 1.4px; stroke-opacity: 0.11017073327893481; stroke: rgb(226,226,255);" marker-end="" d="M1010,312, 1090,475">
</path>
<path class="link" style="stroke-width: 1.4px; stroke-opacity: 0.7084235880850065; stroke: rgb(255,74,74);" marker-end="" d="M1050,312, 730,475">
</path>
<path class="link" style="stroke-width: 1.4px; stroke-opacity: 0.8274312066735765; stroke: rgb(255,44,44);" marker-end="" d="M1050,312, 770,475">
</path>
<path class="link" style="stroke-width: 1.4px; stroke-opacity: 0.7288386278937299; stroke: rgb(255,69,69);" marker-end="" d="M1050,312, 810,475">
</path>
<path class="link" style="stroke-width: 1.4px; stroke-opacity: 0.9532547333892436; stroke: rgb(255,11,11);" marker-end="" d="M1050,312, 850,475">
</path>
<path class="link" style="stroke-width: 1.4px; stroke-opacity: 0.6665431672608084; stroke: rgb(85,85,255);" marker-end="" d="M1050,312, 890,475">
</path>
<path class="link" style="stroke-width: 1.4px; stroke-opacity: 0.6852754975366377; stroke: rgb(80,80,255);" marker-end="" d="M1050,312, 930,475">
</path>
<path class="link" style="stroke-width: 1.4px; stroke-opacity: 0.7952933305368626; stroke: rgb(52,52,255);" marker-end="" d="M1050,312, 970,475">
</path>
<path class="link" style="stroke-width: 1.4px; stroke-opacity: 0.3924819478950599; stroke: rgb(255,154,154);" marker-end="" d="M1050,312, 1010,475">
</path>
<path class="link" style="stroke-width: 1.4px; stroke-opacity: 0.9448760516701449; stroke: rgb(14,14,255);" marker-end="" d="M1050,312, 1050,475">
</path>
<path class="link" style="stroke-width: 1.4px; stroke-opacity: 0.02223281923533695; stroke: rgb(255,249,249);" marker-end="" d="M1050,312, 1090,475">
</path>
<path class="link" style="stroke-width: 1.4px; stroke-opacity: 0.6340340854830782; stroke: rgb(93,93,255);" marker-end="" d="M1090,312, 730,475">
</path>
<path class="link" style="stroke-width: 1.4px; stroke-opacity: 0.8196939210984389; stroke: rgb(45,45,255);" marker-end="" d="M1090,312, 770,475">
</path>
<path class="link" style="stroke-width: 1.4px; stroke-opacity: 0.47909278798215815; stroke: rgb(255,132,132);" marker-end="" d="M1090,312, 810,475">
</path>
<path class="link" style="stroke-width: 1.4px; stroke-opacity: 0.5440185076409745; stroke: rgb(255,116,116);" marker-end="" d="M1090,312, 850,475">
</path>
<path class="link" style="stroke-width: 1.4px; stroke-opacity: 0.32129706796274965; stroke: rgb(173,173,255);" marker-end="" d="M1090,312, 890,475">
</path>
<path class="link" style="stroke-width: 1.4px; stroke-opacity: 0.13201760196255027; stroke: rgb(255,221,221);" marker-end="" d="M1090,312, 930,475">
</path>
<path class="link" style="stroke-width: 1.4px; stroke-opacity: 0.8678842304521681; stroke: rgb(255,33,33);" marker-end="" d="M1090,312, 970,475">
</path>
<path class="link" style="stroke-width: 1.4px; stroke-opacity: 0.6995774752113763; stroke: rgb(255,76,76);" marker-end="" d="M1090,312, 1010,475">
</path>
<path class="link" style="stroke-width: 1.4px; stroke-opacity: 0.6623644991930216; stroke: rgb(86,86,255);" marker-end="" d="M1090,312, 1050,475">
</path>
<path class="link" style="stroke-width: 1.4px; stroke-opacity: 0.7639136082659045; stroke: rgb(60,60,255);" marker-end="" d="M1090,312, 1090,475">
</path>
<path class="link" style="stroke-width: 1.4px; stroke-opacity: 0.2830080847958406; stroke: rgb(255,182,182);" marker-end="" d="M1130,312, 730,475">
</path>
<path class="link" style="stroke-width: 1.4px; stroke-opacity: 0.709541419088162; stroke: rgb(255,74,74);" marker-end="" d="M1130,312, 770,475">
</path>
<path class="link" style="stroke-width: 1.4px; stroke-opacity: 0.10735472634494896; stroke: rgb(227,227,255);" marker-end="" d="M1130,312, 810,475">
</path>
<path class="link" style="stroke-width: 1.4px; stroke-opacity: 0.5535228425484561; stroke: rgb(255,113,113);" marker-end="" d="M1130,312, 850,475">
</path>
<path class="link" style="stroke-width: 1.4px; stroke-opacity: 0.8141670390137943; stroke: rgb(47,47,255);" marker-end="" d="M1130,312, 890,475">
</path>
<path class="link" style="stroke-width: 1.4px; stroke-opacity: 0.6770858463477911; stroke: rgb(255,82,82);" marker-end="" d="M1130,312, 930,475">
</path>
<path class="link" style="stroke-width: 1.4px; stroke-opacity: 0.2511840431016361; stroke: rgb(255,190,190);" marker-end="" d="M1130,312, 970,475">
</path>
<path class="link" style="stroke-width: 1.4px; stroke-opacity: 0.8736349864599783; stroke: rgb(32,32,255);" marker-end="" d="M1130,312, 1010,475">
</path>
<path class="link" style="stroke-width: 1.4px; stroke-opacity: 0.6367220808076947; stroke: rgb(255,92,92);" marker-end="" d="M1130,312, 1050,475">
</path>
<path class="link" style="stroke-width: 1.4px; stroke-opacity: 0.676912434278934; stroke: rgb(255,82,82);" marker-end="" d="M1130,312, 1090,475">
</path>
<path class="link" style="stroke-width: 1.4px; stroke-opacity: 0.3157618760890325; stroke: rgb(174,174,255);" marker-end="" d="M1170,312, 730,475">
</path>
<path class="link" style="stroke-width: 1.4px; stroke-opacity: 0.7561502760120261; stroke: rgb(62,62,255);" marker-end="" d="M1170,312, 770,475">
</path>
<path class="link" style="stroke-width: 1.4px; stroke-opacity: 0.3624466900316865; stroke: rgb(162,162,255);" marker-end="" d="M1170,312, 810,475">
</path>
<path class="link" style="stroke-width: 1.4px; stroke-opacity: 0.06943814122677612; stroke: rgb(255,237,237);" marker-end="" d="M1170,312, 850,475">
</path>
<path class="link" style="stroke-width: 1.4px; stroke-opacity: 0.30024132251417013; stroke: rgb(178,178,255);" marker-end="" d="M1170,312, 890,475">
</path>
<path class="link" style="stroke-width: 1.4px; stroke-opacity: 0.17960182698735178; stroke: rgb(255,209,209);" marker-end="" d="M1170,312, 930,475">
</path>
<path class="link" style="stroke-width: 1.4px; stroke-opacity: 0.2741781335627249; stroke: rgb(185,185,255);" marker-end="" d="M1170,312, 970,475">
</path>
<path class="link" style="stroke-width: 1.4px; stroke-opacity: 0.04432973652043132; stroke: rgb(243,243,255);" marker-end="" d="M1170,312, 1010,475">
</path>
<path class="link" style="stroke-width: 1.4px; stroke-opacity: 0.6477717591806523; stroke: rgb(255,89,89);" marker-end="" d="M1170,312, 1050,475">
</path>
<path class="link" style="stroke-width: 1.4px; stroke-opacity: 0.5031795888562653; stroke: rgb(126,126,255);" marker-end="" d="M1170,312, 1090,475">
</path>
<path class="link" style="stroke-width: 1.4px; stroke-opacity: 0.09715276434053156; stroke: rgb(255,230,230);" marker-end="" d="M730,475, 821,638">
</path>
<path class="link" style="stroke-width: 1.4px; stroke-opacity: 0.6117945950812606; stroke: rgb(98,98,255);" marker-end="" d="M770,475, 821,638">
</path>
<path class="link" style="stroke-width: 1.4px; stroke-opacity: 0.12055643883091538; stroke: rgb(224,224,255);" marker-end="" d="M810,475, 821,638">
</path>
<path class="link" style="stroke-width: 1.4px; stroke-opacity: 0.8122938649261036; stroke: rgb(255,47,47);" marker-end="" d="M850,475, 821,638">
</path>
<path class="link" style="stroke-width: 1.4px; stroke-opacity: 0.7890724742522195; stroke: rgb(255,53,53);" marker-end="" d="M890,475, 821,638">
</path>
<path class="link" style="stroke-width: 1.4px; stroke-opacity: 0.7645791596677763; stroke: rgb(255,60,60);" marker-end="" d="M930,475, 821,638">
</path>
<path class="link" style="stroke-width: 1.4px; stroke-opacity: 0.6771596756362563; stroke: rgb(255,82,82);" marker-end="" d="M970,475, 821,638">
</path>
<path class="link" style="stroke-width: 1.4px; stroke-opacity: 0.950019949915261; stroke: rgb(12,12,255);" marker-end="" d="M1010,475, 821,638">
</path>
<path class="link" style="stroke-width: 1.4px; stroke-opacity: 0.3063703318426026; stroke: rgb(255,176,176);" marker-end="" d="M1050,475, 821,638">
</path>
<path class="link" style="stroke-width: 1.4px; stroke-opacity: 0.740483747184181; stroke: rgb(66,66,255);" marker-end="" d="M1090,475, 821,638">
</path>
<path class="link" style="stroke-width: 1.4px; stroke-opacity: 0.37255379986839454; stroke: rgb(159,159,255);" marker-end="" d="M730,312, 1130,475">
</path>
<path class="link" style="stroke-width: 1.4px; stroke-opacity: 0.4719231523646044; stroke: rgb(255,134,134);" marker-end="" d="M770,312, 1130,475">
</path>
<path class="link" style="stroke-width: 1.4px; stroke-opacity: 0.33307879378678806; stroke: rgb(170,170,255);" marker-end="" d="M810,312, 1130,475">
</path>
<path class="link" style="stroke-width: 1.4px; stroke-opacity: 0.36530046926816784; stroke: rgb(161,161,255);" marker-end="" d="M850,312, 1130,475">
</path>
<path class="link" style="stroke-width: 1.4px; stroke-opacity: 0.8403006284689947; stroke: rgb(255,40,40);" marker-end="" d="M890,312, 1130,475">
</path>
<path class="link" style="stroke-width: 1.4px; stroke-opacity: 0.271298080382582; stroke: rgb(255,185,185);" marker-end="" d="M930,312, 1130,475">
</path>
<path class="link" style="stroke-width: 1.4px; stroke-opacity: 0.09131248831303553; stroke: rgb(255,231,231);" marker-end="" d="M970,312, 1130,475">
</path>
<path class="link" style="stroke-width: 1.4px; stroke-opacity: 0.875240458407193; stroke: rgb(255,31,31);" marker-end="" d="M1010,312, 1130,475">
</path>
<path class="link" style="stroke-width: 1.4px; stroke-opacity: 0.020846004216712805; stroke: rgb(255,249,249);" marker-end="" d="M1050,312, 1130,475">
</path>
<path class="link" style="stroke-width: 1.4px; stroke-opacity: 0.2972118848628805; stroke: rgb(255,179,179);" marker-end="" d="M1090,312, 1130,475">
</path>
<path class="link" style="stroke-width: 1.4px; stroke-opacity: 0.8237033154945749; stroke: rgb(44,44,255);" marker-end="" d="M1130,312, 1130,475">
</path>
<path class="link" style="stroke-width: 1.4px; stroke-opacity: 0.46825749732573113; stroke: rgb(255,135,135);" marker-end="" d="M1170,312, 1130,475">
</path>
<path class="link" style="stroke-width: 1.4px; stroke-opacity: 0.19708309367637994; stroke: rgb(204,204,255);" marker-end="" d="M1130,475, 821,638">
</path>
<path class="link" style="stroke-width: 1.4px; stroke-opacity: 0.03236975562754354; stroke: rgb(246,246,255);" marker-end="" d="M730,312, 1170,475">
</path>
<path class="link" style="stroke-width: 1.4px; stroke-opacity: 0.25713259520123927; stroke: rgb(255,189,189);" marker-end="" d="M770,312, 1170,475">
</path>
<path class="link" style="stroke-width: 1.4px; stroke-opacity: 0.6278934014195654; stroke: rgb(255,94,94);" marker-end="" d="M810,312, 1170,475">
</path>
<path class="link" style="stroke-width: 1.4px; stroke-opacity: 0.5434548133544916; stroke: rgb(255,116,116);" marker-end="" d="M850,312, 1170,475">
</path>
<path class="link" style="stroke-width: 1.4px; stroke-opacity: 0.6316875041757284; stroke: rgb(255,93,93);" marker-end="" d="M890,312, 1170,475">
</path>
<path class="link" style="stroke-width: 1.4px; stroke-opacity: 0.7949975485170069; stroke: rgb(255,52,52);" marker-end="" d="M930,312, 1170,475">
</path>
<path class="link" style="stroke-width: 1.4px; stroke-opacity: 0.6422918166819699; stroke: rgb(255,91,91);" marker-end="" d="M970,312, 1170,475">
</path>
<path class="link" style="stroke-width: 1.4px; stroke-opacity: 0.8958487947914097; stroke: rgb(255,26,26);" marker-end="" d="M1010,312, 1170,475">
</path>
<path class="link" style="stroke-width: 1.4px; stroke-opacity: 0.8236001802625584; stroke: rgb(255,44,44);" marker-end="" d="M1050,312, 1170,475">
</path>
<path class="link" style="stroke-width: 1.4px; stroke-opacity: 0.7195648651173252; stroke: rgb(71,71,255);" marker-end="" d="M1090,312, 1170,475">
</path>
<path class="link" style="stroke-width: 1.4px; stroke-opacity: 0.28436964833353984; stroke: rgb(255,182,182);" marker-end="" d="M1130,312, 1170,475">
</path>
<path class="link" style="stroke-width: 1.4px; stroke-opacity: 0.029973711833214445; stroke: rgb(247,247,255);" marker-end="" d="M1170,312, 1170,475">
</path>
<path class="link" style="stroke-width: 1.4px; stroke-opacity: 0.6044479685646289; stroke: rgb(255,100,100);" marker-end="" d="M1170,475, 821,638">
</path>
<path class="link" style="stroke-width: 1.4px; stroke-opacity: 0.057883913657965975; stroke: rgb(240,240,255);" marker-end="" d="M730,475, 907,638">
</path>
<path class="link" style="stroke-width: 1.4px; stroke-opacity: 0.22546917630189917; stroke: rgb(255,197,197);" marker-end="" d="M770,475, 907,638">
</path>
<path class="link" style="stroke-width: 1.4px; stroke-opacity: 0.4817266178400428; stroke: rgb(132,132,255);" marker-end="" d="M810,475, 907,638">
</path>
<path class="link" style="stroke-width: 1.4px; stroke-opacity: 0.5412025264316274; stroke: rgb(255,116,116);" marker-end="" d="M850,475, 907,638">
</path>
<path class="link" style="stroke-width: 1.4px; stroke-opacity: 0.8541700869686772; stroke: rgb(37,37,255);" marker-end="" d="M890,475, 907,638">
</path>
<path class="link" style="stroke-width: 1.4px; stroke-opacity: 0.37399602573449914; stroke: rgb(159,159,255);" marker-end="" d="M930,475, 907,638">
</path>
<path class="link" style="stroke-width: 1.4px; stroke-opacity: 0.4280469303731251; stroke: rgb(255,145,145);" marker-end="" d="M970,475, 907,638">
</path>
<path class="link" style="stroke-width: 1.4px; stroke-opacity: 0.2352337929643771; stroke: rgb(255,195,195);" marker-end="" d="M1010,475, 907,638">
</path>
<path class="link" style="stroke-width: 1.4px; stroke-opacity: 0.33309375802976326; stroke: rgb(255,170,170);" marker-end="" d="M1050,475, 907,638">
</path>
<path class="link" style="stroke-width: 1.4px; stroke-opacity: 0.6898781950331101; stroke: rgb(79,79,255);" marker-end="" d="M1090,475, 907,638">
</path>
<path class="link" style="stroke-width: 1.4px; stroke-opacity: 0.9350909901551409; stroke: rgb(255,16,16);" marker-end="" d="M1130,475, 907,638">
</path>
<path class="link" style="stroke-width: 1.4px; stroke-opacity: 0.6601599413132173; stroke: rgb(86,86,255);" marker-end="" d="M1170,475, 907,638">
</path>
<path class="link" style="stroke-width: 1.4px; stroke-opacity: 0.5591600940120169; stroke: rgb(255,112,112);" marker-end="" d="M730,475, 993,638">
</path>
<path class="link" style="stroke-width: 1.4px; stroke-opacity: 0.2778533515299896; stroke: rgb(184,184,255);" marker-end="" d="M770,475, 993,638">
</path>
<path class="link" style="stroke-width: 1.4px; stroke-opacity: 0.38384793642333276; stroke: rgb(157,157,255);" marker-end="" d="M810,475, 993,638">
</path>
<path class="link" style="stroke-width: 1.4px; stroke-opacity: 0.35688345370599206; stroke: rgb(163,163,255);" marker-end="" d="M850,475, 993,638">
</path>
<path class="link" style="stroke-width: 1.4px; stroke-opacity: 0.2365911638637633; stroke: rgb(194,194,255);" marker-end="" d="M890,475, 993,638">
</path>
<path class="link" style="stroke-width: 1.4px; stroke-opacity: 0.7843386625407708; stroke: rgb(54,54,255);" marker-end="" d="M930,475, 993,638">
</path>
<path class="link" style="stroke-width: 1.4px; stroke-opacity: 0.4651745801201728; stroke: rgb(255,136,136);" marker-end="" d="M970,475, 993,638">
</path>
<path class="link" style="stroke-width: 1.4px; stroke-opacity: 0.8887341721387388; stroke: rgb(28,28,255);" marker-end="" d="M1010,475, 993,638">
</path>
<path class="link" style="stroke-width: 1.4px; stroke-opacity: 0.007018106760863261; stroke: rgb(255,253,253);" marker-end="" d="M1050,475, 993,638">
</path>
<path class="link" style="stroke-width: 1.4px; stroke-opacity: 0.5891665661111238; stroke: rgb(255,104,104);" marker-end="" d="M1090,475, 993,638">
</path>
<path class="link" style="stroke-width: 1.4px; stroke-opacity: 0.008426211847749793; stroke: rgb(255,252,252);" marker-end="" d="M1130,475, 993,638">
</path>
<path class="link" style="stroke-width: 1.4px; stroke-opacity: 0.11658165522628254; stroke: rgb(255,225,225);" marker-end="" d="M1170,475, 993,638">
</path>
<path class="link" style="stroke-width: 1.4px; stroke-opacity: 0.3202094041759619; stroke: rgb(255,173,173);" marker-end="" d="M730,475, 1079,638">
</path>
<path class="link" style="stroke-width: 1.4px; stroke-opacity: 0.1902374482875602; stroke: rgb(255,206,206);" marker-end="" d="M770,475, 1079,638">
</path>
<path class="link" style="stroke-width: 1.4px; stroke-opacity: 0.352002586566817; stroke: rgb(165,165,255);" marker-end="" d="M810,475, 1079,638">
</path>
<path class="link" style="stroke-width: 1.4px; stroke-opacity: 0.4027798217170948; stroke: rgb(152,152,255);" marker-end="" d="M850,475, 1079,638">
</path>
<path class="link" style="stroke-width: 1.4px; stroke-opacity: 0.9248989397126473; stroke: rgb(19,19,255);" marker-end="" d="M890,475, 1079,638">
</path>
<path class="link" style="stroke-width: 1.4px; stroke-opacity: 0.010817334629607113; stroke: rgb(255,252,252);" marker-end="" d="M930,475, 1079,638">
</path>
<path class="link" style="stroke-width: 1.4px; stroke-opacity: 0.814569339941282; stroke: rgb(255,47,47);" marker-end="" d="M970,475, 1079,638">
</path>
<path class="link" style="stroke-width: 1.4px; stroke-opacity: 0.7283306619002763; stroke: rgb(69,69,255);" marker-end="" d="M1010,475, 1079,638">
</path>
<path class="link" style="stroke-width: 1.4px; stroke-opacity: 0.8738060264852014; stroke: rgb(32,32,255);" marker-end="" d="M1050,475, 1079,638">
</path>
<path class="link" style="stroke-width: 1.4px; stroke-opacity: 0.5228245848714095; stroke: rgb(255,121,121);" marker-end="" d="M1090,475, 1079,638">
</path>
<path class="link" style="stroke-width: 1.4px; stroke-opacity: 0.8508091381232801; stroke: rgb(38,38,255);" marker-end="" d="M1130,475, 1079,638">
</path>
<path class="link" style="stroke-width: 1.4px; stroke-opacity: 0.49703085628735444; stroke: rgb(128,128,255);" marker-end="" d="M1170,475, 1079,638">
</path>
<circle r="10" class="node" id="0_0" style="fill: rgb(255, 255, 255); stroke: rgb(51, 51, 51);" cx="730" cy="312">
</circle>
<circle r="10" class="node" id="0_1" style="fill: rgb(255, 255, 255); stroke: rgb(51, 51, 51);" cx="770" cy="312">
</circle>
<circle r="10" class="node" id="0_2" style="fill: rgb(255, 255, 255); stroke: rgb(51, 51, 51);" cx="810" cy="312">
</circle>
<circle r="10" class="node" id="0_3" style="fill: rgb(255, 255, 255); stroke: rgb(51, 51, 51);" cx="850" cy="312">
</circle>
<circle r="10" class="node" id="0_4" style="fill: rgb(255, 255, 255); stroke: rgb(51, 51, 51);" cx="890" cy="312">
</circle>
<circle r="10" class="node" id="0_5" style="fill: rgb(255, 255, 255); stroke: rgb(51, 51, 51);" cx="930" cy="312">
</circle>
<circle r="10" class="node" id="0_6" style="fill: rgb(255, 255, 255); stroke: rgb(51, 51, 51);" cx="970" cy="312">
</circle>
<circle r="10" class="node" id="0_7" style="fill: rgb(255, 255, 255); stroke: rgb(51, 51, 51);" cx="1010" cy="312">
</circle>
<circle r="10" class="node" id="0_8" style="fill: rgb(255, 255, 255); stroke: rgb(51, 51, 51);" cx="1050" cy="312">
</circle>
<circle r="10" class="node" id="0_9" style="fill: rgb(255, 255, 255); stroke: rgb(51, 51, 51);" cx="1090" cy="312">
</circle>
<circle r="10" class="node" id="0_10" style="fill: rgb(255, 255, 255); stroke: rgb(51, 51, 51);" cx="1130" cy="312">
</circle>
<circle r="10" class="node" id="0_11" style="fill: rgb(255, 255, 255); stroke: rgb(51, 51, 51);" cx="1170" cy="312">
</circle>
<circle r="10" class="node" id="1_0" style="fill: rgb(255, 255, 255); stroke: rgb(51, 51, 51);" cx="730" cy="475">
</circle>
<circle r="10" class="node" id="1_1" style="fill: rgb(255, 255, 255); stroke: rgb(51, 51, 51);" cx="770" cy="475">
</circle>
<circle r="10" class="node" id="1_2" style="fill: rgb(255, 255, 255); stroke: rgb(51, 51, 51);" cx="810" cy="475">
</circle>
<circle r="10" class="node" id="1_3" style="fill: rgb(255, 255, 255); stroke: rgb(51, 51, 51);" cx="850" cy="475">
</circle>
<circle r="10" class="node" id="1_4" style="fill: rgb(255, 255, 255); stroke: rgb(51, 51, 51);" cx="890" cy="475">
</circle>
<circle r="10" class="node" id="1_5" style="fill: rgb(255, 255, 255); stroke: rgb(51, 51, 51);" cx="930" cy="475">
</circle>
<circle r="10" class="node" id="1_6" style="fill: rgb(255, 255, 255); stroke: rgb(51, 51, 51);" cx="970" cy="475">
</circle>
<circle r="10" class="node" id="1_7" style="fill: rgb(255, 255, 255); stroke: rgb(51, 51, 51);" cx="1010" cy="475">
</circle>
<circle r="10" class="node" id="1_8" style="fill: rgb(255, 255, 255); stroke: rgb(51, 51, 51);" cx="1050" cy="475">
</circle>
<circle r="10" class="node" id="1_9" style="fill: rgb(255, 255, 255); stroke: rgb(51, 51, 51);" cx="1090" cy="475">
</circle>
<circle r="10" class="node" id="1_10" style="fill: rgb(255, 255, 255); stroke: rgb(51, 51, 51);" cx="1130" cy="475">
</circle>
<circle r="10" class="node" id="1_11" style="fill: rgb(255, 255, 255); stroke: rgb(51, 51, 51);" cx="1170" cy="475">
</circle>
<circle r="10" class="node" id="2_0" style="fill: rgb(255, 255, 255); stroke: rgb(51, 51, 51);" cx="821" cy="638">
</circle>
<text class="text" dy=".35em" style="font-size: 12px;" x="1210" y="312">
Input Layer ∈ ℝ¹²</text>
<text class="text" dy=".35em" style="font-size: 12px;" x="1210" y="475">
Hidden Layer ∈ ℝ¹²</text>
<text class="text" dy=".35em" style="font-size: 12px;" x="1210" y="638">
Output Layer ∈ ℝ⁴</text>
<circle r="10" class="node" id="2_1" style="fill: rgb(255, 255, 255); stroke: rgb(51, 51, 51);" cx="907" cy="638">
</circle>
<circle r="10" class="node" id="2_2" style="fill: rgb(255, 255, 255); stroke: rgb(51, 51, 51);" cx="993" cy="638">
</circle>
<circle r="10" class="node" id="2_3" style="fill: rgb(255, 255, 255); stroke: rgb(51, 51, 51);" cx="1079" cy="638">
</circle>
</g>
<defs>
<marker id="arrow" viewBox="0 -5 10 10" markerWidth="7" markerHeight="7" orient="auto" refX="40">
<path d="M0,-5L10,0L0,5" style="stroke: rgb(80, 80, 80); fill: none;">
</path>
</marker>
</defs>
</svg>
