<svg xmlns="http://www.w3.org/2000/svg" style="cursor: move;" width="1920" height="910"><g transform="translate(-525.0788733650638,-239.9259318365216) scale(1.5691681957935018)"><path class="link" style="stroke-width: 1.41px; stroke-opacity: 0.778457; stroke: rgb(56, 56, 255);" marker-end="" d="M658.5,332, 711.5,475"></path><path class="link" style="stroke-width: 1.41px; stroke-opacity: 0.928784; stroke: rgb(18, 18, 255);" marker-end="" d="M658.5,332, 764.5,475"></path><path class="link" style="stroke-width: 1.41px; stroke-opacity: 0.882715; stroke: rgb(30, 30, 255);" marker-end="" d="M658.5,332, 817.5,475"></path><path class="link" style="stroke-width: 1.41px; stroke-opacity: 0.704802; stroke: rgb(75, 75, 255);" marker-end="" d="M658.5,332, 870.5,475"></path><path class="link" style="stroke-width: 1.41px; stroke-opacity: 0.33337; stroke: rgb(255, 170, 170);" marker-end="" d="M658.5,332, 923.5,475"></path><path class="link" style="stroke-width: 1.41px; stroke-opacity: 0.0646804; stroke: rgb(239, 239, 255);" marker-end="" d="M658.5,332, 976.5,475"></path><path class="link" style="stroke-width: 1.41px; stroke-opacity: 0.659096; stroke: rgb(87, 87, 255);" marker-end="" d="M658.5,332, 1029.5,475"></path><path class="link" style="stroke-width: 1.41px; stroke-opacity: 0.0910388; stroke: rgb(255, 232, 232);" marker-end="" d="M658.5,332, 1082.5,475"></path><path class="link" style="stroke-width: 1.41px; stroke-opacity: 0.565361; stroke: rgb(111, 111, 255);" marker-end="" d="M658.5,332, 1135.5,475"></path><path class="link" style="stroke-width: 1.41px; stroke-opacity: 0.578304; stroke: rgb(108, 108, 255);" marker-end="" d="M658.5,332, 1188.5,475"></path><path class="link" style="stroke-width: 1.41px; stroke-opacity: 0.574161; stroke: rgb(255, 109, 109);" marker-end="" d="M658.5,332, 1241.5,475"></path><path class="link" style="stroke-width: 1.41px; stroke-opacity: 0.0547636; stroke: rgb(241, 241, 255);" marker-end="" d="M711.5,332, 711.5,475"></path><path class="link" style="stroke-width: 1.41px; stroke-opacity: 0.635128; stroke: rgb(255, 93, 93);" marker-end="" d="M711.5,332, 764.5,475"></path><path class="link" style="stroke-width: 1.41px; stroke-opacity: 0.143052; stroke: rgb(255, 219, 219);" marker-end="" d="M711.5,332, 817.5,475"></path><path class="link" style="stroke-width: 1.41px; stroke-opacity: 0.709449; stroke: rgb(255, 74, 74);" marker-end="" d="M711.5,332, 870.5,475"></path><path class="link" style="stroke-width: 1.41px; stroke-opacity: 0.594821; stroke: rgb(255, 103, 103);" marker-end="" d="M711.5,332, 923.5,475"></path><path class="link" style="stroke-width: 1.41px; stroke-opacity: 0.904532; stroke: rgb(255, 24, 24);" marker-end="" d="M711.5,332, 976.5,475"></path><path class="link" style="stroke-width: 1.41px; stroke-opacity: 0.28295; stroke: rgb(183, 183, 255);" marker-end="" d="M711.5,332, 1029.5,475"></path><path class="link" style="stroke-width: 1.41px; stroke-opacity: 0.0990461; stroke: rgb(255, 230, 230);" marker-end="" d="M711.5,332, 1082.5,475"></path><path class="link" style="stroke-width: 1.41px; stroke-opacity: 0.745188; stroke: rgb(255, 65, 65);" marker-end="" d="M711.5,332, 1135.5,475"></path><path class="link" style="stroke-width: 1.41px; stroke-opacity: 0.252869; stroke: rgb(255, 191, 191);" marker-end="" d="M711.5,332, 1188.5,475"></path><path class="link" style="stroke-width: 1.41px; stroke-opacity: 0.262141; stroke: rgb(188, 188, 255);" marker-end="" d="M711.5,332, 1241.5,475"></path><path class="link" style="stroke-width: 1.41px; stroke-opacity: 0.204886; stroke: rgb(255, 203, 203);" marker-end="" d="M764.5,332, 711.5,475"></path><path class="link" style="stroke-width: 1.41px; stroke-opacity: 0.822183; stroke: rgb(45, 45, 255);" marker-end="" d="M764.5,332, 764.5,475"></path><path class="link" style="stroke-width: 1.41px; stroke-opacity: 0.133029; stroke: rgb(255, 221, 221);" marker-end="" d="M764.5,332, 817.5,475"></path><path class="link" style="stroke-width: 1.41px; stroke-opacity: 0.45914; stroke: rgb(255, 138, 138);" marker-end="" d="M764.5,332, 870.5,475"></path><path class="link" style="stroke-width: 1.41px; stroke-opacity: 0.974121; stroke: rgb(255, 7, 7);" marker-end="" d="M764.5,332, 923.5,475"></path><path class="link" style="stroke-width: 1.41px; stroke-opacity: 0.271672; stroke: rgb(255, 186, 186);" marker-end="" d="M764.5,332, 976.5,475"></path><path class="link" style="stroke-width: 1.41px; stroke-opacity: 0.975477; stroke: rgb(6, 6, 255);" marker-end="" d="M764.5,332, 1029.5,475"></path><path class="link" style="stroke-width: 1.41px; stroke-opacity: 0.39121; stroke: rgb(255, 155, 155);" marker-end="" d="M764.5,332, 1082.5,475"></path><path class="link" style="stroke-width: 1.41px; stroke-opacity: 0.21837; stroke: rgb(255, 199, 199);" marker-end="" d="M764.5,332, 1135.5,475"></path><path class="link" style="stroke-width: 1.41px; stroke-opacity: 0.119138; stroke: rgb(255, 225, 225);" marker-end="" d="M764.5,332, 1188.5,475"></path><path class="link" style="stroke-width: 1.41px; stroke-opacity: 0.377682; stroke: rgb(159, 159, 255);" marker-end="" d="M764.5,332, 1241.5,475"></path><path class="link" style="stroke-width: 1.41px; stroke-opacity: 0.62814; stroke: rgb(255, 95, 95);" marker-end="" d="M817.5,332, 711.5,475"></path><path class="link" style="stroke-width: 1.41px; stroke-opacity: 0.726017; stroke: rgb(70, 70, 255);" marker-end="" d="M817.5,332, 764.5,475"></path><path class="link" style="stroke-width: 1.41px; stroke-opacity: 0.339009; stroke: rgb(255, 169, 169);" marker-end="" d="M817.5,332, 817.5,475"></path><path class="link" style="stroke-width: 1.41px; stroke-opacity: 0.507904; stroke: rgb(255, 125, 125);" marker-end="" d="M817.5,332, 870.5,475"></path><path class="link" style="stroke-width: 1.41px; stroke-opacity: 0.575718; stroke: rgb(255, 108, 108);" marker-end="" d="M817.5,332, 923.5,475"></path><path class="link" style="stroke-width: 1.41px; stroke-opacity: 0.572446; stroke: rgb(109, 109, 255);" marker-end="" d="M817.5,332, 976.5,475"></path><path class="link" style="stroke-width: 1.41px; stroke-opacity: 0.355055; stroke: rgb(255, 164, 164);" marker-end="" d="M817.5,332, 1029.5,475"></path><path class="link" style="stroke-width: 1.41px; stroke-opacity: 0.146882; stroke: rgb(218, 218, 255);" marker-end="" d="M817.5,332, 1082.5,475"></path><path class="link" style="stroke-width: 1.41px; stroke-opacity: 0.845182; stroke: rgb(255, 39, 39);" marker-end="" d="M817.5,332, 1135.5,475"></path><path class="link" style="stroke-width: 1.41px; stroke-opacity: 0.806443; stroke: rgb(255, 49, 49);" marker-end="" d="M817.5,332, 1188.5,475"></path><path class="link" style="stroke-width: 1.41px; stroke-opacity: 0.888877; stroke: rgb(28, 28, 255);" marker-end="" d="M817.5,332, 1241.5,475"></path><path class="link" style="stroke-width: 1.41px; stroke-opacity: 0.470236; stroke: rgb(135, 135, 255);" marker-end="" d="M870.5,332, 711.5,475"></path><path class="link" style="stroke-width: 1.41px; stroke-opacity: 0.458289; stroke: rgb(138, 138, 255);" marker-end="" d="M870.5,332, 764.5,475"></path><path class="link" style="stroke-width: 1.41px; stroke-opacity: 0.445318; stroke: rgb(255, 141, 141);" marker-end="" d="M870.5,332, 817.5,475"></path><path class="link" style="stroke-width: 1.41px; stroke-opacity: 0.743546; stroke: rgb(255, 65, 65);" marker-end="" d="M870.5,332, 870.5,475"></path><path class="link" style="stroke-width: 1.41px; stroke-opacity: 0.624916; stroke: rgb(96, 96, 255);" marker-end="" d="M870.5,332, 923.5,475"></path><path class="link" style="stroke-width: 1.41px; stroke-opacity: 0.137677; stroke: rgb(255, 220, 220);" marker-end="" d="M870.5,332, 976.5,475"></path><path class="link" style="stroke-width: 1.41px; stroke-opacity: 0.312978; stroke: rgb(175, 175, 255);" marker-end="" d="M870.5,332, 1029.5,475"></path><path class="link" style="stroke-width: 1.41px; stroke-opacity: 0.892606; stroke: rgb(255, 27, 27);" marker-end="" d="M870.5,332, 1082.5,475"></path><path class="link" style="stroke-width: 1.41px; stroke-opacity: 0.487139; stroke: rgb(255, 131, 131);" marker-end="" d="M870.5,332, 1135.5,475"></path><path class="link" style="stroke-width: 1.41px; stroke-opacity: 0.79848; stroke: rgb(255, 51, 51);" marker-end="" d="M870.5,332, 1188.5,475"></path><path class="link" style="stroke-width: 1.41px; stroke-opacity: 0.47288; stroke: rgb(255, 134, 134);" marker-end="" d="M870.5,332, 1241.5,475"></path><path class="link" style="stroke-width: 1.41px; stroke-opacity: 0.782305; stroke: rgb(56, 56, 255);" marker-end="" d="M923.5,332, 711.5,475"></path><path class="link" style="stroke-width: 1.41px; stroke-opacity: 0.177026; stroke: rgb(255, 210, 210);" marker-end="" d="M923.5,332, 764.5,475"></path><path class="link" style="stroke-width: 1.41px; stroke-opacity: 0.751816; stroke: rgb(63, 63, 255);" marker-end="" d="M923.5,332, 817.5,475"></path><path class="link" style="stroke-width: 1.41px; stroke-opacity: 0.543296; stroke: rgb(255, 116, 116);" marker-end="" d="M923.5,332, 870.5,475"></path><path class="link" style="stroke-width: 1.41px; stroke-opacity: 0.726895; stroke: rgb(70, 70, 255);" marker-end="" d="M923.5,332, 923.5,475"></path><path class="link" style="stroke-width: 1.41px; stroke-opacity: 0.97132; stroke: rgb(7, 7, 255);" marker-end="" d="M923.5,332, 976.5,475"></path><path class="link" style="stroke-width: 1.41px; stroke-opacity: 0.180769; stroke: rgb(255, 209, 209);" marker-end="" d="M923.5,332, 1029.5,475"></path><path class="link" style="stroke-width: 1.41px; stroke-opacity: 0.180032; stroke: rgb(209, 209, 255);" marker-end="" d="M923.5,332, 1082.5,475"></path><path class="link" style="stroke-width: 1.41px; stroke-opacity: 0.237813; stroke: rgb(255, 194, 194);" marker-end="" d="M923.5,332, 1135.5,475"></path><path class="link" style="stroke-width: 1.41px; stroke-opacity: 0.193444; stroke: rgb(255, 206, 206);" marker-end="" d="M923.5,332, 1188.5,475"></path><path class="link" style="stroke-width: 1.41px; stroke-opacity: 0.981587; stroke: rgb(5, 5, 255);" marker-end="" d="M923.5,332, 1241.5,475"></path><path class="link" style="stroke-width: 1.41px; stroke-opacity: 0.0018461; stroke: rgb(255, 255, 255);" marker-end="" d="M976.5,332, 711.5,475"></path><path class="link" style="stroke-width: 1.41px; stroke-opacity: 0.281017; stroke: rgb(255, 183, 183);" marker-end="" d="M976.5,332, 764.5,475"></path><path class="link" style="stroke-width: 1.41px; stroke-opacity: 0.608136; stroke: rgb(255, 100, 100);" marker-end="" d="M976.5,332, 817.5,475"></path><path class="link" style="stroke-width: 1.41px; stroke-opacity: 0.450877; stroke: rgb(140, 140, 255);" marker-end="" d="M976.5,332, 870.5,475"></path><path class="link" style="stroke-width: 1.41px; stroke-opacity: 0.395935; stroke: rgb(255, 154, 154);" marker-end="" d="M976.5,332, 923.5,475"></path><path class="link" style="stroke-width: 1.41px; stroke-opacity: 0.43842; stroke: rgb(143, 143, 255);" marker-end="" d="M976.5,332, 976.5,475"></path><path class="link" style="stroke-width: 1.41px; stroke-opacity: 0.172783; stroke: rgb(211, 211, 255);" marker-end="" d="M976.5,332, 1029.5,475"></path><path class="link" style="stroke-width: 1.41px; stroke-opacity: 0.325509; stroke: rgb(172, 172, 255);" marker-end="" d="M976.5,332, 1082.5,475"></path><path class="link" style="stroke-width: 1.41px; stroke-opacity: 0.741111; stroke: rgb(66, 66, 255);" marker-end="" d="M976.5,332, 1135.5,475"></path><path class="link" style="stroke-width: 1.41px; stroke-opacity: 0.634571; stroke: rgb(93, 93, 255);" marker-end="" d="M976.5,332, 1188.5,475"></path><path class="link" style="stroke-width: 1.41px; stroke-opacity: 0.728362; stroke: rgb(255, 69, 69);" marker-end="" d="M976.5,332, 1241.5,475"></path><path class="link" style="stroke-width: 1.41px; stroke-opacity: 0.942703; stroke: rgb(15, 15, 255);" marker-end="" d="M1029.5,332, 711.5,475"></path><path class="link" style="stroke-width: 1.41px; stroke-opacity: 0.877346; stroke: rgb(31, 31, 255);" marker-end="" d="M1029.5,332, 764.5,475"></path><path class="link" style="stroke-width: 1.41px; stroke-opacity: 0.371019; stroke: rgb(160, 160, 255);" marker-end="" d="M1029.5,332, 817.5,475"></path><path class="link" style="stroke-width: 1.41px; stroke-opacity: 0.230806; stroke: rgb(196, 196, 255);" marker-end="" d="M1029.5,332, 870.5,475"></path><path class="link" style="stroke-width: 1.41px; stroke-opacity: 0.145017; stroke: rgb(218, 218, 255);" marker-end="" d="M1029.5,332, 923.5,475"></path><path class="link" style="stroke-width: 1.41px; stroke-opacity: 0.701892; stroke: rgb(255, 76, 76);" marker-end="" d="M1029.5,332, 976.5,475"></path><path class="link" style="stroke-width: 1.41px; stroke-opacity: 0.652736; stroke: rgb(89, 89, 255);" marker-end="" d="M1029.5,332, 1029.5,475"></path><path class="link" style="stroke-width: 1.41px; stroke-opacity: 0.966434; stroke: rgb(255, 9, 9);" marker-end="" d="M1029.5,332, 1082.5,475"></path><path class="link" style="stroke-width: 1.41px; stroke-opacity: 0.625202; stroke: rgb(96, 96, 255);" marker-end="" d="M1029.5,332, 1135.5,475"></path><path class="link" style="stroke-width: 1.41px; stroke-opacity: 0.462461; stroke: rgb(255, 137, 137);" marker-end="" d="M1029.5,332, 1188.5,475"></path><path class="link" style="stroke-width: 1.41px; stroke-opacity: 0.860096; stroke: rgb(36, 36, 255);" marker-end="" d="M1029.5,332, 1241.5,475"></path><path class="link" style="stroke-width: 1.41px; stroke-opacity: 0.854165; stroke: rgb(255, 37, 37);" marker-end="" d="M1082.5,332, 711.5,475"></path><path class="link" style="stroke-width: 1.41px; stroke-opacity: 0.869204; stroke: rgb(255, 33, 33);" marker-end="" d="M1082.5,332, 764.5,475"></path><path class="link" style="stroke-width: 1.41px; stroke-opacity: 0.468112; stroke: rgb(136, 136, 255);" marker-end="" d="M1082.5,332, 817.5,475"></path><path class="link" style="stroke-width: 1.41px; stroke-opacity: 0.560183; stroke: rgb(255, 112, 112);" marker-end="" d="M1082.5,332, 870.5,475"></path><path class="link" style="stroke-width: 1.41px; stroke-opacity: 0.396414; stroke: rgb(154, 154, 255);" marker-end="" d="M1082.5,332, 923.5,475"></path><path class="link" style="stroke-width: 1.41px; stroke-opacity: 0.0373611; stroke: rgb(245, 245, 255);" marker-end="" d="M1082.5,332, 976.5,475"></path><path class="link" style="stroke-width: 1.41px; stroke-opacity: 0.172694; stroke: rgb(255, 211, 211);" marker-end="" d="M1082.5,332, 1029.5,475"></path><path class="link" style="stroke-width: 1.41px; stroke-opacity: 0.554517; stroke: rgb(255, 114, 114);" marker-end="" d="M1082.5,332, 1082.5,475"></path><path class="link" style="stroke-width: 1.41px; stroke-opacity: 0.239873; stroke: rgb(255, 194, 194);" marker-end="" d="M1082.5,332, 1135.5,475"></path><path class="link" style="stroke-width: 1.41px; stroke-opacity: 0.49552; stroke: rgb(129, 129, 255);" marker-end="" d="M1082.5,332, 1188.5,475"></path><path class="link" style="stroke-width: 1.41px; stroke-opacity: 0.340909; stroke: rgb(255, 168, 168);" marker-end="" d="M1082.5,332, 1241.5,475"></path><path class="link" style="stroke-width: 1.41px; stroke-opacity: 0.00510384; stroke: rgb(255, 254, 254);" marker-end="" d="M1135.5,332, 711.5,475"></path><path class="link" style="stroke-width: 1.41px; stroke-opacity: 0.0084648; stroke: rgb(255, 253, 253);" marker-end="" d="M1135.5,332, 764.5,475"></path><path class="link" style="stroke-width: 1.41px; stroke-opacity: 0.91754; stroke: rgb(255, 21, 21);" marker-end="" d="M1135.5,332, 817.5,475"></path><path class="link" style="stroke-width: 1.41px; stroke-opacity: 0.257718; stroke: rgb(255, 189, 189);" marker-end="" d="M1135.5,332, 870.5,475"></path><path class="link" style="stroke-width: 1.41px; stroke-opacity: 0.466403; stroke: rgb(136, 136, 255);" marker-end="" d="M1135.5,332, 923.5,475"></path><path class="link" style="stroke-width: 1.41px; stroke-opacity: 0.267806; stroke: rgb(187, 187, 255);" marker-end="" d="M1135.5,332, 976.5,475"></path><path class="link" style="stroke-width: 1.41px; stroke-opacity: 0.810749; stroke: rgb(255, 48, 48);" marker-end="" d="M1135.5,332, 1029.5,475"></path><path class="link" style="stroke-width: 1.41px; stroke-opacity: 0.822777; stroke: rgb(255, 45, 45);" marker-end="" d="M1135.5,332, 1082.5,475"></path><path class="link" style="stroke-width: 1.41px; stroke-opacity: 0.465653; stroke: rgb(136, 136, 255);" marker-end="" d="M1135.5,332, 1135.5,475"></path><path class="link" style="stroke-width: 1.41px; stroke-opacity: 0.891149; stroke: rgb(28, 28, 255);" marker-end="" d="M1135.5,332, 1188.5,475"></path><path class="link" style="stroke-width: 1.41px; stroke-opacity: 0.341721; stroke: rgb(168, 168, 255);" marker-end="" d="M1135.5,332, 1241.5,475"></path><path class="link" style="stroke-width: 1.41px; stroke-opacity: 0.495992; stroke: rgb(129, 129, 255);" marker-end="" d="M1188.5,332, 711.5,475"></path><path class="link" style="stroke-width: 1.41px; stroke-opacity: 0.523868; stroke: rgb(121, 121, 255);" marker-end="" d="M1188.5,332, 764.5,475"></path><path class="link" style="stroke-width: 1.41px; stroke-opacity: 0.117205; stroke: rgb(225, 225, 255);" marker-end="" d="M1188.5,332, 817.5,475"></path><path class="link" style="stroke-width: 1.41px; stroke-opacity: 0.619681; stroke: rgb(97, 97, 255);" marker-end="" d="M1188.5,332, 870.5,475"></path><path class="link" style="stroke-width: 1.41px; stroke-opacity: 0.193633; stroke: rgb(255, 206, 206);" marker-end="" d="M1188.5,332, 923.5,475"></path><path class="link" style="stroke-width: 1.41px; stroke-opacity: 0.880602; stroke: rgb(30, 30, 255);" marker-end="" d="M1188.5,332, 976.5,475"></path><path class="link" style="stroke-width: 1.41px; stroke-opacity: 0.301221; stroke: rgb(178, 178, 255);" marker-end="" d="M1188.5,332, 1029.5,475"></path><path class="link" style="stroke-width: 1.41px; stroke-opacity: 0.915777; stroke: rgb(255, 21, 21);" marker-end="" d="M1188.5,332, 1082.5,475"></path><path class="link" style="stroke-width: 1.41px; stroke-opacity: 0.245049; stroke: rgb(193, 193, 255);" marker-end="" d="M1188.5,332, 1135.5,475"></path><path class="link" style="stroke-width: 1.41px; stroke-opacity: 0.280627; stroke: rgb(183, 183, 255);" marker-end="" d="M1188.5,332, 1188.5,475"></path><path class="link" style="stroke-width: 1.41px; stroke-opacity: 0.761312; stroke: rgb(61, 61, 255);" marker-end="" d="M1188.5,332, 1241.5,475"></path><path class="link" style="stroke-width: 1.41px; stroke-opacity: 0.764961; stroke: rgb(60, 60, 255);" marker-end="" d="M1241.5,332, 711.5,475"></path><path class="link" style="stroke-width: 1.41px; stroke-opacity: 0.174533; stroke: rgb(210, 210, 255);" marker-end="" d="M1241.5,332, 764.5,475"></path><path class="link" style="stroke-width: 1.41px; stroke-opacity: 0.671597; stroke: rgb(255, 84, 84);" marker-end="" d="M1241.5,332, 817.5,475"></path><path class="link" style="stroke-width: 1.41px; stroke-opacity: 0.789347; stroke: rgb(54, 54, 255);" marker-end="" d="M1241.5,332, 870.5,475"></path><path class="link" style="stroke-width: 1.41px; stroke-opacity: 0.70232; stroke: rgb(76, 76, 255);" marker-end="" d="M1241.5,332, 923.5,475"></path><path class="link" style="stroke-width: 1.41px; stroke-opacity: 0.613081; stroke: rgb(255, 99, 99);" marker-end="" d="M1241.5,332, 976.5,475"></path><path class="link" style="stroke-width: 1.41px; stroke-opacity: 0.735684; stroke: rgb(67, 67, 255);" marker-end="" d="M1241.5,332, 1029.5,475"></path><path class="link" style="stroke-width: 1.41px; stroke-opacity: 0.0857569; stroke: rgb(255, 233, 233);" marker-end="" d="M1241.5,332, 1082.5,475"></path><path class="link" style="stroke-width: 1.41px; stroke-opacity: 0.681486; stroke: rgb(81, 81, 255);" marker-end="" d="M1241.5,332, 1135.5,475"></path><path class="link" style="stroke-width: 1.41px; stroke-opacity: 0.727159; stroke: rgb(70, 70, 255);" marker-end="" d="M1241.5,332, 1188.5,475"></path><path class="link" style="stroke-width: 1.41px; stroke-opacity: 0.383637; stroke: rgb(255, 157, 157);" marker-end="" d="M1241.5,332, 1241.5,475"></path><path class="link" style="stroke-width: 1.41px; stroke-opacity: 0.929165; stroke: rgb(18, 18, 255);" marker-end="" d="M658.5,475, 836,618"></path><path class="link" style="stroke-width: 1.41px; stroke-opacity: 0.401671; stroke: rgb(153, 153, 255);" marker-end="" d="M658.5,475, 912,618"></path><path class="link" style="stroke-width: 1.41px; stroke-opacity: 0.0471878; stroke: rgb(255, 243, 243);" marker-end="" d="M658.5,475, 988,618"></path><path class="link" style="stroke-width: 1.41px; stroke-opacity: 0.0752637; stroke: rgb(236, 236, 255);" marker-end="" d="M658.5,475, 1064,618"></path><path class="link" style="stroke-width: 1.41px; stroke-opacity: 0.475337; stroke: rgb(134, 134, 255);" marker-end="" d="M711.5,475, 836,618"></path><path class="link" style="stroke-width: 1.41px; stroke-opacity: 0.599272; stroke: rgb(255, 102, 102);" marker-end="" d="M711.5,475, 912,618"></path><path class="link" style="stroke-width: 1.41px; stroke-opacity: 0.473885; stroke: rgb(255, 134, 134);" marker-end="" d="M711.5,475, 988,618"></path><path class="link" style="stroke-width: 1.41px; stroke-opacity: 0.596775; stroke: rgb(103, 103, 255);" marker-end="" d="M711.5,475, 1064,618"></path><path class="link" style="stroke-width: 1.41px; stroke-opacity: 0.305313; stroke: rgb(177, 177, 255);" marker-end="" d="M764.5,475, 836,618"></path><path class="link" style="stroke-width: 1.41px; stroke-opacity: 0.335575; stroke: rgb(169, 169, 255);" marker-end="" d="M764.5,475, 912,618"></path><path class="link" style="stroke-width: 1.41px; stroke-opacity: 0.288122; stroke: rgb(255, 182, 182);" marker-end="" d="M764.5,475, 988,618"></path><path class="link" style="stroke-width: 1.41px; stroke-opacity: 0.31604; stroke: rgb(255, 174, 174);" marker-end="" d="M764.5,475, 1064,618"></path><path class="link" style="stroke-width: 1.41px; stroke-opacity: 0.376141; stroke: rgb(255, 159, 159);" marker-end="" d="M817.5,475, 836,618"></path><path class="link" style="stroke-width: 1.41px; stroke-opacity: 0.944294; stroke: rgb(14, 14, 255);" marker-end="" d="M817.5,475, 912,618"></path><path class="link" style="stroke-width: 1.41px; stroke-opacity: 0.730723; stroke: rgb(255, 69, 69);" marker-end="" d="M817.5,475, 988,618"></path><path class="link" style="stroke-width: 1.41px; stroke-opacity: 0.396577; stroke: rgb(255, 154, 154);" marker-end="" d="M817.5,475, 1064,618"></path><path class="link" style="stroke-width: 1.41px; stroke-opacity: 0.912601; stroke: rgb(22, 22, 255);" marker-end="" d="M870.5,475, 836,618"></path><path class="link" style="stroke-width: 1.41px; stroke-opacity: 0.423704; stroke: rgb(147, 147, 255);" marker-end="" d="M870.5,475, 912,618"></path><path class="link" style="stroke-width: 1.41px; stroke-opacity: 0.489383; stroke: rgb(255, 130, 130);" marker-end="" d="M870.5,475, 988,618"></path><path class="link" style="stroke-width: 1.41px; stroke-opacity: 0.384016; stroke: rgb(255, 157, 157);" marker-end="" d="M870.5,475, 1064,618"></path><path class="link" style="stroke-width: 1.41px; stroke-opacity: 0.324045; stroke: rgb(172, 172, 255);" marker-end="" d="M923.5,475, 836,618"></path><path class="link" style="stroke-width: 1.41px; stroke-opacity: 0.858554; stroke: rgb(36, 36, 255);" marker-end="" d="M923.5,475, 912,618"></path><path class="link" style="stroke-width: 1.41px; stroke-opacity: 0.0418004; stroke: rgb(255, 244, 244);" marker-end="" d="M923.5,475, 988,618"></path><path class="link" style="stroke-width: 1.41px; stroke-opacity: 0.301901; stroke: rgb(255, 178, 178);" marker-end="" d="M923.5,475, 1064,618"></path><path class="link" style="stroke-width: 1.41px; stroke-opacity: 0.178889; stroke: rgb(255, 209, 209);" marker-end="" d="M976.5,475, 836,618"></path><path class="link" style="stroke-width: 1.41px; stroke-opacity: 0.931573; stroke: rgb(17, 17, 255);" marker-end="" d="M976.5,475, 912,618"></path><path class="link" style="stroke-width: 1.41px; stroke-opacity: 0.839851; stroke: rgb(255, 41, 41);" marker-end="" d="M976.5,475, 988,618"></path><path class="link" style="stroke-width: 1.41px; stroke-opacity: 0.833511; stroke: rgb(42, 42, 255);" marker-end="" d="M976.5,475, 1064,618"></path><path class="link" style="stroke-width: 1.41px; stroke-opacity: 0.449956; stroke: rgb(255, 140, 140);" marker-end="" d="M1029.5,475, 836,618"></path><path class="link" style="stroke-width: 1.41px; stroke-opacity: 0.718881; stroke: rgb(255, 72, 72);" marker-end="" d="M1029.5,475, 912,618"></path><path class="link" style="stroke-width: 1.41px; stroke-opacity: 0.356692; stroke: rgb(255, 164, 164);" marker-end="" d="M1029.5,475, 988,618"></path><path class="link" style="stroke-width: 1.41px; stroke-opacity: 0.294769; stroke: rgb(180, 180, 255);" marker-end="" d="M1029.5,475, 1064,618"></path><path class="link" style="stroke-width: 1.41px; stroke-opacity: 0.516875; stroke: rgb(255, 123, 123);" marker-end="" d="M1082.5,475, 836,618"></path><path class="link" style="stroke-width: 1.41px; stroke-opacity: 0.541388; stroke: rgb(255, 117, 117);" marker-end="" d="M1082.5,475, 912,618"></path><path class="link" style="stroke-width: 1.41px; stroke-opacity: 0.896227; stroke: rgb(255, 26, 26);" marker-end="" d="M1082.5,475, 988,618"></path><path class="link" style="stroke-width: 1.41px; stroke-opacity: 0.459407; stroke: rgb(255, 138, 138);" marker-end="" d="M1082.5,475, 1064,618"></path><path class="link" style="stroke-width: 1.41px; stroke-opacity: 0.887754; stroke: rgb(255, 29, 29);" marker-end="" d="M1135.5,475, 836,618"></path><path class="link" style="stroke-width: 1.41px; stroke-opacity: 0.222498; stroke: rgb(255, 198, 198);" marker-end="" d="M1135.5,475, 912,618"></path><path class="link" style="stroke-width: 1.41px; stroke-opacity: 0.746582; stroke: rgb(65, 65, 255);" marker-end="" d="M1135.5,475, 988,618"></path><path class="link" style="stroke-width: 1.41px; stroke-opacity: 0.491343; stroke: rgb(255, 130, 130);" marker-end="" d="M1135.5,475, 1064,618"></path><path class="link" style="stroke-width: 1.41px; stroke-opacity: 0.807375; stroke: rgb(255, 49, 49);" marker-end="" d="M1188.5,475, 836,618"></path><path class="link" style="stroke-width: 1.41px; stroke-opacity: 0.732741; stroke: rgb(255, 68, 68);" marker-end="" d="M1188.5,475, 912,618"></path><path class="link" style="stroke-width: 1.41px; stroke-opacity: 0.12583; stroke: rgb(223, 223, 255);" marker-end="" d="M1188.5,475, 988,618"></path><path class="link" style="stroke-width: 1.41px; stroke-opacity: 0.659395; stroke: rgb(255, 87, 87);" marker-end="" d="M1188.5,475, 1064,618"></path><path class="link" style="stroke-width: 1.41px; stroke-opacity: 0.876489; stroke: rgb(255, 31, 31);" marker-end="" d="M1241.5,475, 836,618"></path><path class="link" style="stroke-width: 1.41px; stroke-opacity: 0.222788; stroke: rgb(255, 198, 198);" marker-end="" d="M1241.5,475, 912,618"></path><path class="link" style="stroke-width: 1.41px; stroke-opacity: 0.827171; stroke: rgb(44, 44, 255);" marker-end="" d="M1241.5,475, 988,618"></path><path class="link" style="stroke-width: 1.41px; stroke-opacity: 0.431066; stroke: rgb(255, 145, 145);" marker-end="" d="M1241.5,475, 1064,618"></path><path class="link" style="stroke-width: 1.41px; stroke-opacity: 0.269007; stroke: rgb(255, 186, 186);" marker-end="" d="M658.5,332, 658.5,475"></path><path class="link" style="stroke-width: 1.41px; stroke-opacity: 0.627096; stroke: rgb(95, 95, 255);" marker-end="" d="M711.5,332, 658.5,475"></path><path class="link" style="stroke-width: 1.41px; stroke-opacity: 0.82933; stroke: rgb(255, 44, 44);" marker-end="" d="M764.5,332, 658.5,475"></path><path class="link" style="stroke-width: 1.41px; stroke-opacity: 0.0559093; stroke: rgb(241, 241, 255);" marker-end="" d="M817.5,332, 658.5,475"></path><path class="link" style="stroke-width: 1.41px; stroke-opacity: 0.774446; stroke: rgb(255, 58, 58);" marker-end="" d="M870.5,332, 658.5,475"></path><path class="link" style="stroke-width: 1.41px; stroke-opacity: 0.705854; stroke: rgb(75, 75, 255);" marker-end="" d="M923.5,332, 658.5,475"></path><path class="link" style="stroke-width: 1.41px; stroke-opacity: 0.773449; stroke: rgb(255, 58, 58);" marker-end="" d="M976.5,332, 658.5,475"></path><path class="link" style="stroke-width: 1.41px; stroke-opacity: 0.103123; stroke: rgb(255, 229, 229);" marker-end="" d="M1029.5,332, 658.5,475"></path><path class="link" style="stroke-width: 1.41px; stroke-opacity: 0.998627; stroke: rgb(255, 0, 0);" marker-end="" d="M1082.5,332, 658.5,475"></path><path class="link" style="stroke-width: 1.41px; stroke-opacity: 0.853666; stroke: rgb(255, 37, 37);" marker-end="" d="M1135.5,332, 658.5,475"></path><path class="link" style="stroke-width: 1.41px; stroke-opacity: 0.918853; stroke: rgb(21, 21, 255);" marker-end="" d="M1188.5,332, 658.5,475"></path><path class="link" style="stroke-width: 1.41px; stroke-opacity: 0.14456; stroke: rgb(218, 218, 255);" marker-end="" d="M1241.5,332, 658.5,475"></path><circle r="10" class="node" id="0_0" style="fill: rgb(255, 255, 255); stroke: rgb(51, 51, 51);" cx="658.5" cy="332"></circle><circle r="10" class="node" id="0_1" style="fill: rgb(255, 255, 255); stroke: rgb(51, 51, 51);" cx="711.5" cy="332"></circle><circle r="10" class="node" id="0_2" style="fill: rgb(255, 255, 255); stroke: rgb(51, 51, 51);" cx="764.5" cy="332"></circle><circle r="10" class="node" id="0_3" style="fill: rgb(255, 255, 255); stroke: rgb(51, 51, 51);" cx="817.5" cy="332"></circle><circle r="10" class="node" id="0_4" style="fill: rgb(255, 255, 255); stroke: rgb(51, 51, 51);" cx="870.5" cy="332"></circle><circle r="10" class="node" id="0_5" style="fill: rgb(255, 255, 255); stroke: rgb(51, 51, 51);" cx="923.5" cy="332"></circle><circle r="10" class="node" id="0_6" style="fill: rgb(255, 255, 255); stroke: rgb(51, 51, 51);" cx="976.5" cy="332"></circle><circle r="10" class="node" id="0_7" style="fill: rgb(255, 255, 255); stroke: rgb(51, 51, 51);" cx="1029.5" cy="332"></circle><circle r="10" class="node" id="0_8" style="fill: rgb(255, 255, 255); stroke: rgb(51, 51, 51);" cx="1082.5" cy="332"></circle><circle r="10" class="node" id="0_9" style="fill: rgb(255, 255, 255); stroke: rgb(51, 51, 51);" cx="1135.5" cy="332"></circle><circle r="10" class="node" id="0_10" style="fill: rgb(255, 255, 255); stroke: rgb(51, 51, 51);" cx="1188.5" cy="332"></circle><circle r="10" class="node" id="0_11" style="fill: rgb(255, 255, 255); stroke: rgb(51, 51, 51);" cx="1241.5" cy="332"></circle><circle r="10" class="node" id="1_0" style="fill: rgb(255, 255, 255); stroke: rgb(51, 51, 51);" cx="658.5" cy="475"></circle><circle r="10" class="node" id="1_1" style="fill: rgb(255, 255, 255); stroke: rgb(51, 51, 51);" cx="711.5" cy="475"></circle><circle r="10" class="node" id="1_2" style="fill: rgb(255, 255, 255); stroke: rgb(51, 51, 51);" cx="764.5" cy="475"></circle><circle r="10" class="node" id="1_3" style="fill: rgb(255, 255, 255); stroke: rgb(51, 51, 51);" cx="817.5" cy="475"></circle><circle r="10" class="node" id="1_4" style="fill: rgb(255, 255, 255); stroke: rgb(51, 51, 51);" cx="870.5" cy="475"></circle><circle r="10" class="node" id="1_5" style="fill: rgb(255, 255, 255); stroke: rgb(51, 51, 51);" cx="923.5" cy="475"></circle><circle r="10" class="node" id="1_6" style="fill: rgb(255, 255, 255); stroke: rgb(51, 51, 51);" cx="976.5" cy="475"></circle><circle r="10" class="node" id="1_7" style="fill: rgb(255, 255, 255); stroke: rgb(51, 51, 51);" cx="1029.5" cy="475"></circle><circle r="10" class="node" id="1_8" style="fill: rgb(255, 255, 255); stroke: rgb(51, 51, 51);" cx="1082.5" cy="475"></circle><circle r="10" class="node" id="1_9" style="fill: rgb(255, 255, 255); stroke: rgb(51, 51, 51);" cx="1135.5" cy="475"></circle><circle r="10" class="node" id="1_10" style="fill: rgb(255, 255, 255); stroke: rgb(51, 51, 51);" cx="1188.5" cy="475"></circle><circle r="10" class="node" id="1_11" style="fill: rgb(255, 255, 255); stroke: rgb(51, 51, 51);" cx="1241.5" cy="475"></circle><circle r="10" class="node" id="2_0" style="fill: rgb(255, 255, 255); stroke: rgb(51, 51, 51);" cx="836" cy="618"></circle><circle r="10" class="node" id="2_1" style="fill: rgb(255, 255, 255); stroke: rgb(51, 51, 51);" cx="912" cy="618"></circle><circle r="10" class="node" id="2_2" style="fill: rgb(255, 255, 255); stroke: rgb(51, 51, 51);" cx="988" cy="618"></circle><circle r="10" class="node" id="2_3" style="fill: rgb(255, 255, 255); stroke: rgb(51, 51, 51);" cx="1064" cy="618"></circle><text class="text" dy=".35em" style="font-size: 12px;" x="1281.5" y="332">Input Layer ∈ ℝ¹²</text><text class="text" dy=".35em" style="font-size: 12px;" x="1281.5" y="475">Hidden Layer ∈ ℝ¹²</text><text class="text" dy=".35em" style="font-size: 12px;" x="1281.5" y="618">Output Layer ∈ ℝ⁴</text></g><defs><marker id="arrow" viewBox="0 -5 10 10" markerWidth="7" markerHeight="7" orient="auto" refX="40"><path d="M0,-5L10,0L0,5" style="stroke: rgb(80, 80, 80); fill: rgb(80, 80, 80);"></path></marker></defs></svg>