<svg xmlns="http://www.w3.org/2000/svg" style="cursor: move;" width="1920" height="910"><g><path class="link" style="stroke-width: 1.4px; stroke-opacity: 0.324454; stroke: rgb(172, 172, 255);" marker-end="" d="M730,312, 730,475"></path><path class="link" style="stroke-width: 1.4px; stroke-opacity: 0.234866; stroke: rgb(255, 195, 195);" marker-end="" d="M730,312, 770,475"></path><path class="link" style="stroke-width: 1.4px; stroke-opacity: 0.381145; stroke: rgb(158, 158, 255);" marker-end="" d="M730,312, 810,475"></path><path class="link" style="stroke-width: 1.4px; stroke-opacity: 0.704533; stroke: rgb(255, 75, 75);" marker-end="" d="M730,312, 850,475"></path><path class="link" style="stroke-width: 1.4px; stroke-opacity: 0.86653; stroke: rgb(34, 34, 255);" marker-end="" d="M730,312, 890,475"></path><path class="link" style="stroke-width: 1.4px; stroke-opacity: 0.549976; stroke: rgb(115, 115, 255);" marker-end="" d="M730,312, 930,475"></path><path class="link" style="stroke-width: 1.4px; stroke-opacity: 0.0825217; stroke: rgb(234, 234, 255);" marker-end="" d="M730,312, 970,475"></path><path class="link" style="stroke-width: 1.4px; stroke-opacity: 0.285653; stroke: rgb(182, 182, 255);" marker-end="" d="M730,312, 1010,475"></path><path class="link" style="stroke-width: 1.4px; stroke-opacity: 0.784085; stroke: rgb(55, 55, 255);" marker-end="" d="M730,312, 1050,475"></path><path class="link" style="stroke-width: 1.4px; stroke-opacity: 0.186291; stroke: rgb(255, 207, 207);" marker-end="" d="M730,312, 1090,475"></path><path class="link" style="stroke-width: 1.4px; stroke-opacity: 0.0131802; stroke: rgb(255, 252, 252);" marker-end="" d="M770,312, 730,475"></path><path class="link" style="stroke-width: 1.4px; stroke-opacity: 0.217987; stroke: rgb(199, 199, 255);" marker-end="" d="M770,312, 770,475"></path><path class="link" style="stroke-width: 1.4px; stroke-opacity: 0.764832; stroke: rgb(60, 60, 255);" marker-end="" d="M770,312, 810,475"></path><path class="link" style="stroke-width: 1.4px; stroke-opacity: 0.275548; stroke: rgb(255, 185, 185);" marker-end="" d="M770,312, 850,475"></path><path class="link" style="stroke-width: 1.4px; stroke-opacity: 0.0620156; stroke: rgb(255, 239, 239);" marker-end="" d="M770,312, 890,475"></path><path class="link" style="stroke-width: 1.4px; stroke-opacity: 0.670296; stroke: rgb(84, 84, 255);" marker-end="" d="M770,312, 930,475"></path><path class="link" style="stroke-width: 1.4px; stroke-opacity: 0.314681; stroke: rgb(175, 175, 255);" marker-end="" d="M770,312, 970,475"></path><path class="link" style="stroke-width: 1.4px; stroke-opacity: 0.280002; stroke: rgb(184, 184, 255);" marker-end="" d="M770,312, 1010,475"></path><path class="link" style="stroke-width: 1.4px; stroke-opacity: 0.407879; stroke: rgb(151, 151, 255);" marker-end="" d="M770,312, 1050,475"></path><path class="link" style="stroke-width: 1.4px; stroke-opacity: 0.302173; stroke: rgb(178, 178, 255);" marker-end="" d="M770,312, 1090,475"></path><path class="link" style="stroke-width: 1.4px; stroke-opacity: 0.630225; stroke: rgb(94, 94, 255);" marker-end="" d="M810,312, 730,475"></path><path class="link" style="stroke-width: 1.4px; stroke-opacity: 0.224368; stroke: rgb(255, 198, 198);" marker-end="" d="M810,312, 770,475"></path><path class="link" style="stroke-width: 1.4px; stroke-opacity: 0.239864; stroke: rgb(194, 194, 255);" marker-end="" d="M810,312, 810,475"></path><path class="link" style="stroke-width: 1.4px; stroke-opacity: 0.569586; stroke: rgb(255, 110, 110);" marker-end="" d="M810,312, 850,475"></path><path class="link" style="stroke-width: 1.4px; stroke-opacity: 0.724774; stroke: rgb(70, 70, 255);" marker-end="" d="M810,312, 890,475"></path><path class="link" style="stroke-width: 1.4px; stroke-opacity: 0.209999; stroke: rgb(201, 201, 255);" marker-end="" d="M810,312, 930,475"></path><path class="link" style="stroke-width: 1.4px; stroke-opacity: 0.63782; stroke: rgb(92, 92, 255);" marker-end="" d="M810,312, 970,475"></path><path class="link" style="stroke-width: 1.4px; stroke-opacity: 0.957294; stroke: rgb(11, 11, 255);" marker-end="" d="M810,312, 1010,475"></path><path class="link" style="stroke-width: 1.4px; stroke-opacity: 0.302284; stroke: rgb(255, 178, 178);" marker-end="" d="M810,312, 1050,475"></path><path class="link" style="stroke-width: 1.4px; stroke-opacity: 0.618125; stroke: rgb(255, 97, 97);" marker-end="" d="M810,312, 1090,475"></path><path class="link" style="stroke-width: 1.4px; stroke-opacity: 0.445563; stroke: rgb(141, 141, 255);" marker-end="" d="M850,312, 730,475"></path><path class="link" style="stroke-width: 1.4px; stroke-opacity: 0.807386; stroke: rgb(255, 49, 49);" marker-end="" d="M850,312, 770,475"></path><path class="link" style="stroke-width: 1.4px; stroke-opacity: 0.832617; stroke: rgb(43, 43, 255);" marker-end="" d="M850,312, 810,475"></path><path class="link" style="stroke-width: 1.4px; stroke-opacity: 0.157025; stroke: rgb(215, 215, 255);" marker-end="" d="M850,312, 850,475"></path><path class="link" style="stroke-width: 1.4px; stroke-opacity: 0.539515; stroke: rgb(255, 117, 117);" marker-end="" d="M850,312, 890,475"></path><path class="link" style="stroke-width: 1.4px; stroke-opacity: 0.364721; stroke: rgb(162, 162, 255);" marker-end="" d="M850,312, 930,475"></path><path class="link" style="stroke-width: 1.4px; stroke-opacity: 0.351109; stroke: rgb(255, 165, 165);" marker-end="" d="M850,312, 970,475"></path><path class="link" style="stroke-width: 1.4px; stroke-opacity: 0.321222; stroke: rgb(255, 173, 173);" marker-end="" d="M850,312, 1010,475"></path><path class="link" style="stroke-width: 1.4px; stroke-opacity: 0.646899; stroke: rgb(255, 90, 90);" marker-end="" d="M850,312, 1050,475"></path><path class="link" style="stroke-width: 1.4px; stroke-opacity: 0.937588; stroke: rgb(255, 16, 16);" marker-end="" d="M850,312, 1090,475"></path><path class="link" style="stroke-width: 1.4px; stroke-opacity: 0.30001; stroke: rgb(178, 178, 255);" marker-end="" d="M890,312, 730,475"></path><path class="link" style="stroke-width: 1.4px; stroke-opacity: 0.171313; stroke: rgb(211, 211, 255);" marker-end="" d="M890,312, 770,475"></path><path class="link" style="stroke-width: 1.4px; stroke-opacity: 0.170789; stroke: rgb(211, 211, 255);" marker-end="" d="M890,312, 810,475"></path><path class="link" style="stroke-width: 1.4px; stroke-opacity: 0.699502; stroke: rgb(77, 77, 255);" marker-end="" d="M890,312, 850,475"></path><path class="link" style="stroke-width: 1.4px; stroke-opacity: 0.400896; stroke: rgb(255, 153, 153);" marker-end="" d="M890,312, 890,475"></path><path class="link" style="stroke-width: 1.4px; stroke-opacity: 0.449759; stroke: rgb(140, 140, 255);" marker-end="" d="M890,312, 930,475"></path><path class="link" style="stroke-width: 1.4px; stroke-opacity: 0.817641; stroke: rgb(255, 47, 47);" marker-end="" d="M890,312, 970,475"></path><path class="link" style="stroke-width: 1.4px; stroke-opacity: 0.323632; stroke: rgb(255, 172, 172);" marker-end="" d="M890,312, 1010,475"></path><path class="link" style="stroke-width: 1.4px; stroke-opacity: 0.733264; stroke: rgb(255, 68, 68);" marker-end="" d="M890,312, 1050,475"></path><path class="link" style="stroke-width: 1.4px; stroke-opacity: 0.488858; stroke: rgb(130, 130, 255);" marker-end="" d="M890,312, 1090,475"></path><path class="link" style="stroke-width: 1.4px; stroke-opacity: 0.502327; stroke: rgb(255, 127, 127);" marker-end="" d="M930,312, 730,475"></path><path class="link" style="stroke-width: 1.4px; stroke-opacity: 0.154018; stroke: rgb(255, 216, 216);" marker-end="" d="M930,312, 770,475"></path><path class="link" style="stroke-width: 1.4px; stroke-opacity: 0.676661; stroke: rgb(82, 82, 255);" marker-end="" d="M930,312, 810,475"></path><path class="link" style="stroke-width: 1.4px; stroke-opacity: 0.605429; stroke: rgb(255, 101, 101);" marker-end="" d="M930,312, 850,475"></path><path class="link" style="stroke-width: 1.4px; stroke-opacity: 0.0272683; stroke: rgb(255, 248, 248);" marker-end="" d="M930,312, 890,475"></path><path class="link" style="stroke-width: 1.4px; stroke-opacity: 0.794855; stroke: rgb(255, 52, 52);" marker-end="" d="M930,312, 930,475"></path><path class="link" style="stroke-width: 1.4px; stroke-opacity: 0.639684; stroke: rgb(92, 92, 255);" marker-end="" d="M930,312, 970,475"></path><path class="link" style="stroke-width: 1.4px; stroke-opacity: 0.160231; stroke: rgb(255, 214, 214);" marker-end="" d="M930,312, 1010,475"></path><path class="link" style="stroke-width: 1.4px; stroke-opacity: 0.325999; stroke: rgb(172, 172, 255);" marker-end="" d="M930,312, 1050,475"></path><path class="link" style="stroke-width: 1.4px; stroke-opacity: 0.474104; stroke: rgb(134, 134, 255);" marker-end="" d="M930,312, 1090,475"></path><path class="link" style="stroke-width: 1.4px; stroke-opacity: 0.851769; stroke: rgb(255, 38, 38);" marker-end="" d="M970,312, 730,475"></path><path class="link" style="stroke-width: 1.4px; stroke-opacity: 0.052531; stroke: rgb(242, 242, 255);" marker-end="" d="M970,312, 770,475"></path><path class="link" style="stroke-width: 1.4px; stroke-opacity: 0.86727; stroke: rgb(255, 34, 34);" marker-end="" d="M970,312, 810,475"></path><path class="link" style="stroke-width: 1.4px; stroke-opacity: 0.18166; stroke: rgb(255, 209, 209);" marker-end="" d="M970,312, 850,475"></path><path class="link" style="stroke-width: 1.4px; stroke-opacity: 0.46958; stroke: rgb(255, 135, 135);" marker-end="" d="M970,312, 890,475"></path><path class="link" style="stroke-width: 1.4px; stroke-opacity: 0.562683; stroke: rgb(255, 112, 112);" marker-end="" d="M970,312, 930,475"></path><path class="link" style="stroke-width: 1.4px; stroke-opacity: 0.36111; stroke: rgb(255, 163, 163);" marker-end="" d="M970,312, 970,475"></path><path class="link" style="stroke-width: 1.4px; stroke-opacity: 0.539574; stroke: rgb(255, 117, 117);" marker-end="" d="M970,312, 1010,475"></path><path class="link" style="stroke-width: 1.4px; stroke-opacity: 0.904329; stroke: rgb(255, 24, 24);" marker-end="" d="M970,312, 1050,475"></path><path class="link" style="stroke-width: 1.4px; stroke-opacity: 0.165561; stroke: rgb(213, 213, 255);" marker-end="" d="M970,312, 1090,475"></path><path class="link" style="stroke-width: 1.4px; stroke-opacity: 0.964929; stroke: rgb(9, 9, 255);" marker-end="" d="M1010,312, 730,475"></path><path class="link" style="stroke-width: 1.4px; stroke-opacity: 0.72739; stroke: rgb(255, 70, 70);" marker-end="" d="M1010,312, 770,475"></path><path class="link" style="stroke-width: 1.4px; stroke-opacity: 0.24107; stroke: rgb(255, 194, 194);" marker-end="" d="M1010,312, 810,475"></path><path class="link" style="stroke-width: 1.4px; stroke-opacity: 0.178763; stroke: rgb(209, 209, 255);" marker-end="" d="M1010,312, 850,475"></path><path class="link" style="stroke-width: 1.4px; stroke-opacity: 0.0193827; stroke: rgb(250, 250, 255);" marker-end="" d="M1010,312, 890,475"></path><path class="link" style="stroke-width: 1.4px; stroke-opacity: 0.337712; stroke: rgb(255, 169, 169);" marker-end="" d="M1010,312, 930,475"></path><path class="link" style="stroke-width: 1.4px; stroke-opacity: 0.188873; stroke: rgb(255, 207, 207);" marker-end="" d="M1010,312, 970,475"></path><path class="link" style="stroke-width: 1.4px; stroke-opacity: 0.812165; stroke: rgb(255, 48, 48);" marker-end="" d="M1010,312, 1010,475"></path><path class="link" style="stroke-width: 1.4px; stroke-opacity: 0.449651; stroke: rgb(140, 140, 255);" marker-end="" d="M1010,312, 1050,475"></path><path class="link" style="stroke-width: 1.4px; stroke-opacity: 0.430118; stroke: rgb(145, 145, 255);" marker-end="" d="M1010,312, 1090,475"></path><path class="link" style="stroke-width: 1.4px; stroke-opacity: 0.877319; stroke: rgb(31, 31, 255);" marker-end="" d="M1050,312, 730,475"></path><path class="link" style="stroke-width: 1.4px; stroke-opacity: 0.0226379; stroke: rgb(249, 249, 255);" marker-end="" d="M1050,312, 770,475"></path><path class="link" style="stroke-width: 1.4px; stroke-opacity: 0.823486; stroke: rgb(255, 45, 45);" marker-end="" d="M1050,312, 810,475"></path><path class="link" style="stroke-width: 1.4px; stroke-opacity: 0.920603; stroke: rgb(20, 20, 255);" marker-end="" d="M1050,312, 850,475"></path><path class="link" style="stroke-width: 1.4px; stroke-opacity: 0.836279; stroke: rgb(255, 42, 42);" marker-end="" d="M1050,312, 890,475"></path><path class="link" style="stroke-width: 1.4px; stroke-opacity: 0.654799; stroke: rgb(255, 88, 88);" marker-end="" d="M1050,312, 930,475"></path><path class="link" style="stroke-width: 1.4px; stroke-opacity: 0.621842; stroke: rgb(255, 96, 96);" marker-end="" d="M1050,312, 970,475"></path><path class="link" style="stroke-width: 1.4px; stroke-opacity: 0.770459; stroke: rgb(255, 59, 59);" marker-end="" d="M1050,312, 1010,475"></path><path class="link" style="stroke-width: 1.4px; stroke-opacity: 0.201437; stroke: rgb(204, 204, 255);" marker-end="" d="M1050,312, 1050,475"></path><path class="link" style="stroke-width: 1.4px; stroke-opacity: 0.240717; stroke: rgb(255, 194, 194);" marker-end="" d="M1050,312, 1090,475"></path><path class="link" style="stroke-width: 1.4px; stroke-opacity: 0.361823; stroke: rgb(163, 163, 255);" marker-end="" d="M1090,312, 730,475"></path><path class="link" style="stroke-width: 1.4px; stroke-opacity: 0.275562; stroke: rgb(255, 185, 185);" marker-end="" d="M1090,312, 770,475"></path><path class="link" style="stroke-width: 1.4px; stroke-opacity: 0.817764; stroke: rgb(46, 46, 255);" marker-end="" d="M1090,312, 810,475"></path><path class="link" style="stroke-width: 1.4px; stroke-opacity: 0.0998938; stroke: rgb(255, 230, 230);" marker-end="" d="M1090,312, 850,475"></path><path class="link" style="stroke-width: 1.4px; stroke-opacity: 0.236305; stroke: rgb(195, 195, 255);" marker-end="" d="M1090,312, 890,475"></path><path class="link" style="stroke-width: 1.4px; stroke-opacity: 0.408852; stroke: rgb(255, 151, 151);" marker-end="" d="M1090,312, 930,475"></path><path class="link" style="stroke-width: 1.4px; stroke-opacity: 0.474936; stroke: rgb(255, 134, 134);" marker-end="" d="M1090,312, 970,475"></path><path class="link" style="stroke-width: 1.4px; stroke-opacity: 0.67588; stroke: rgb(83, 83, 255);" marker-end="" d="M1090,312, 1010,475"></path><path class="link" style="stroke-width: 1.4px; stroke-opacity: 0.900011; stroke: rgb(255, 25, 25);" marker-end="" d="M1090,312, 1050,475"></path><path class="link" style="stroke-width: 1.4px; stroke-opacity: 0.218677; stroke: rgb(199, 199, 255);" marker-end="" d="M1090,312, 1090,475"></path><path class="link" style="stroke-width: 1.4px; stroke-opacity: 0.831954; stroke: rgb(43, 43, 255);" marker-end="" d="M1130,312, 730,475"></path><path class="link" style="stroke-width: 1.4px; stroke-opacity: 0.43621; stroke: rgb(144, 144, 255);" marker-end="" d="M1130,312, 770,475"></path><path class="link" style="stroke-width: 1.4px; stroke-opacity: 0.326049; stroke: rgb(172, 172, 255);" marker-end="" d="M1130,312, 810,475"></path><path class="link" style="stroke-width: 1.4px; stroke-opacity: 0.836014; stroke: rgb(255, 42, 42);" marker-end="" d="M1130,312, 850,475"></path><path class="link" style="stroke-width: 1.4px; stroke-opacity: 0.124867; stroke: rgb(255, 223, 223);" marker-end="" d="M1130,312, 890,475"></path><path class="link" style="stroke-width: 1.4px; stroke-opacity: 0.0320622; stroke: rgb(247, 247, 255);" marker-end="" d="M1130,312, 930,475"></path><path class="link" style="stroke-width: 1.4px; stroke-opacity: 0.279642; stroke: rgb(184, 184, 255);" marker-end="" d="M1130,312, 970,475"></path><path class="link" style="stroke-width: 1.4px; stroke-opacity: 0.337783; stroke: rgb(169, 169, 255);" marker-end="" d="M1130,312, 1010,475"></path><path class="link" style="stroke-width: 1.4px; stroke-opacity: 0.150763; stroke: rgb(255, 217, 217);" marker-end="" d="M1130,312, 1050,475"></path><path class="link" style="stroke-width: 1.4px; stroke-opacity: 0.694748; stroke: rgb(78, 78, 255);" marker-end="" d="M1130,312, 1090,475"></path><path class="link" style="stroke-width: 1.4px; stroke-opacity: 0.810993; stroke: rgb(48, 48, 255);" marker-end="" d="M1170,312, 730,475"></path><path class="link" style="stroke-width: 1.4px; stroke-opacity: 0.186726; stroke: rgb(207, 207, 255);" marker-end="" d="M1170,312, 770,475"></path><path class="link" style="stroke-width: 1.4px; stroke-opacity: 0.565159; stroke: rgb(111, 111, 255);" marker-end="" d="M1170,312, 810,475"></path><path class="link" style="stroke-width: 1.4px; stroke-opacity: 0.00447045; stroke: rgb(255, 254, 254);" marker-end="" d="M1170,312, 850,475"></path><path class="link" style="stroke-width: 1.4px; stroke-opacity: 0.495207; stroke: rgb(255, 129, 129);" marker-end="" d="M1170,312, 890,475"></path><path class="link" style="stroke-width: 1.4px; stroke-opacity: 0.677844; stroke: rgb(255, 82, 82);" marker-end="" d="M1170,312, 930,475"></path><path class="link" style="stroke-width: 1.4px; stroke-opacity: 0.607054; stroke: rgb(100, 100, 255);" marker-end="" d="M1170,312, 970,475"></path><path class="link" style="stroke-width: 1.4px; stroke-opacity: 0.911367; stroke: rgb(255, 23, 23);" marker-end="" d="M1170,312, 1010,475"></path><path class="link" style="stroke-width: 1.4px; stroke-opacity: 0.0719427; stroke: rgb(255, 237, 237);" marker-end="" d="M1170,312, 1050,475"></path><path class="link" style="stroke-width: 1.4px; stroke-opacity: 0.99123; stroke: rgb(2, 2, 255);" marker-end="" d="M1170,312, 1090,475"></path><path class="link" style="stroke-width: 1.4px; stroke-opacity: 0.150569; stroke: rgb(217, 217, 255);" marker-end="" d="M730,475, 821,638"></path><path class="link" style="stroke-width: 1.4px; stroke-opacity: 0.720578; stroke: rgb(71, 71, 255);" marker-end="" d="M770,475, 821,638"></path><path class="link" style="stroke-width: 1.4px; stroke-opacity: 0.534917; stroke: rgb(255, 119, 119);" marker-end="" d="M810,475, 821,638"></path><path class="link" style="stroke-width: 1.4px; stroke-opacity: 0.402255; stroke: rgb(255, 152, 152);" marker-end="" d="M850,475, 821,638"></path><path class="link" style="stroke-width: 1.4px; stroke-opacity: 0.655908; stroke: rgb(255, 88, 88);" marker-end="" d="M890,475, 821,638"></path><path class="link" style="stroke-width: 1.4px; stroke-opacity: 0.396813; stroke: rgb(255, 154, 154);" marker-end="" d="M930,475, 821,638"></path><path class="link" style="stroke-width: 1.4px; stroke-opacity: 0.834868; stroke: rgb(255, 42, 42);" marker-end="" d="M970,475, 821,638"></path><path class="link" style="stroke-width: 1.4px; stroke-opacity: 0.381672; stroke: rgb(158, 158, 255);" marker-end="" d="M1010,475, 821,638"></path><path class="link" style="stroke-width: 1.4px; stroke-opacity: 0.479269; stroke: rgb(255, 133, 133);" marker-end="" d="M1050,475, 821,638"></path><path class="link" style="stroke-width: 1.4px; stroke-opacity: 0.313849; stroke: rgb(175, 175, 255);" marker-end="" d="M1090,475, 821,638"></path><path class="link" style="stroke-width: 1.4px; stroke-opacity: 0.813305; stroke: rgb(48, 48, 255);" marker-end="" d="M730,312, 1130,475"></path><path class="link" style="stroke-width: 1.4px; stroke-opacity: 0.964943; stroke: rgb(255, 9, 9);" marker-end="" d="M770,312, 1130,475"></path><path class="link" style="stroke-width: 1.4px; stroke-opacity: 0.373053; stroke: rgb(160, 160, 255);" marker-end="" d="M810,312, 1130,475"></path><path class="link" style="stroke-width: 1.4px; stroke-opacity: 0.795049; stroke: rgb(52, 52, 255);" marker-end="" d="M850,312, 1130,475"></path><path class="link" style="stroke-width: 1.4px; stroke-opacity: 0.789836; stroke: rgb(54, 54, 255);" marker-end="" d="M890,312, 1130,475"></path><path class="link" style="stroke-width: 1.4px; stroke-opacity: 0.571844; stroke: rgb(109, 109, 255);" marker-end="" d="M930,312, 1130,475"></path><path class="link" style="stroke-width: 1.4px; stroke-opacity: 0.960722; stroke: rgb(255, 10, 10);" marker-end="" d="M970,312, 1130,475"></path><path class="link" style="stroke-width: 1.4px; stroke-opacity: 0.774959; stroke: rgb(255, 57, 57);" marker-end="" d="M1010,312, 1130,475"></path><path class="link" style="stroke-width: 1.4px; stroke-opacity: 0.90922; stroke: rgb(255, 23, 23);" marker-end="" d="M1050,312, 1130,475"></path><path class="link" style="stroke-width: 1.4px; stroke-opacity: 0.431595; stroke: rgb(145, 145, 255);" marker-end="" d="M1090,312, 1130,475"></path><path class="link" style="stroke-width: 1.4px; stroke-opacity: 0.434595; stroke: rgb(144, 144, 255);" marker-end="" d="M1130,312, 1130,475"></path><path class="link" style="stroke-width: 1.4px; stroke-opacity: 0.710568; stroke: rgb(74, 74, 255);" marker-end="" d="M1170,312, 1130,475"></path><path class="link" style="stroke-width: 1.4px; stroke-opacity: 0.561104; stroke: rgb(255, 112, 112);" marker-end="" d="M1130,475, 821,638"></path><path class="link" style="stroke-width: 1.4px; stroke-opacity: 0.875736; stroke: rgb(255, 32, 32);" marker-end="" d="M730,312, 1170,475"></path><path class="link" style="stroke-width: 1.4px; stroke-opacity: 0.600943; stroke: rgb(255, 102, 102);" marker-end="" d="M770,312, 1170,475"></path><path class="link" style="stroke-width: 1.4px; stroke-opacity: 0.159618; stroke: rgb(214, 214, 255);" marker-end="" d="M810,312, 1170,475"></path><path class="link" style="stroke-width: 1.4px; stroke-opacity: 0.537975; stroke: rgb(255, 118, 118);" marker-end="" d="M850,312, 1170,475"></path><path class="link" style="stroke-width: 1.4px; stroke-opacity: 0.167455; stroke: rgb(255, 212, 212);" marker-end="" d="M890,312, 1170,475"></path><path class="link" style="stroke-width: 1.4px; stroke-opacity: 0.204485; stroke: rgb(255, 203, 203);" marker-end="" d="M930,312, 1170,475"></path><path class="link" style="stroke-width: 1.4px; stroke-opacity: 0.713081; stroke: rgb(255, 73, 73);" marker-end="" d="M970,312, 1170,475"></path><path class="link" style="stroke-width: 1.4px; stroke-opacity: 0.0320215; stroke: rgb(255, 247, 247);" marker-end="" d="M1010,312, 1170,475"></path><path class="link" style="stroke-width: 1.4px; stroke-opacity: 0.551328; stroke: rgb(114, 114, 255);" marker-end="" d="M1050,312, 1170,475"></path><path class="link" style="stroke-width: 1.4px; stroke-opacity: 0.211437; stroke: rgb(201, 201, 255);" marker-end="" d="M1090,312, 1170,475"></path><path class="link" style="stroke-width: 1.4px; stroke-opacity: 0.984727; stroke: rgb(4, 4, 255);" marker-end="" d="M1130,312, 1170,475"></path><path class="link" style="stroke-width: 1.4px; stroke-opacity: 0.298039; stroke: rgb(179, 179, 255);" marker-end="" d="M1170,312, 1170,475"></path><path class="link" style="stroke-width: 1.4px; stroke-opacity: 0.79354; stroke: rgb(255, 53, 53);" marker-end="" d="M1170,475, 821,638"></path><path class="link" style="stroke-width: 1.4px; stroke-opacity: 0.20155; stroke: rgb(255, 204, 204);" marker-end="" d="M730,475, 907,638"></path><path class="link" style="stroke-width: 1.4px; stroke-opacity: 0.821646; stroke: rgb(45, 45, 255);" marker-end="" d="M770,475, 907,638"></path><path class="link" style="stroke-width: 1.4px; stroke-opacity: 0.903472; stroke: rgb(25, 25, 255);" marker-end="" d="M810,475, 907,638"></path><path class="link" style="stroke-width: 1.4px; stroke-opacity: 0.804843; stroke: rgb(50, 50, 255);" marker-end="" d="M850,475, 907,638"></path><path class="link" style="stroke-width: 1.4px; stroke-opacity: 0.994953; stroke: rgb(1, 1, 255);" marker-end="" d="M890,475, 907,638"></path><path class="link" style="stroke-width: 1.4px; stroke-opacity: 0.0215448; stroke: rgb(250, 250, 255);" marker-end="" d="M930,475, 907,638"></path><path class="link" style="stroke-width: 1.4px; stroke-opacity: 0.333838; stroke: rgb(255, 170, 170);" marker-end="" d="M970,475, 907,638"></path><path class="link" style="stroke-width: 1.4px; stroke-opacity: 0.543999; stroke: rgb(255, 116, 116);" marker-end="" d="M1010,475, 907,638"></path><path class="link" style="stroke-width: 1.4px; stroke-opacity: 0.462941; stroke: rgb(255, 137, 137);" marker-end="" d="M1050,475, 907,638"></path><path class="link" style="stroke-width: 1.4px; stroke-opacity: 0.460184; stroke: rgb(138, 138, 255);" marker-end="" d="M1090,475, 907,638"></path><path class="link" style="stroke-width: 1.4px; stroke-opacity: 0.642174; stroke: rgb(91, 91, 255);" marker-end="" d="M1130,475, 907,638"></path><path class="link" style="stroke-width: 1.4px; stroke-opacity: 0.613149; stroke: rgb(255, 99, 99);" marker-end="" d="M1170,475, 907,638"></path><path class="link" style="stroke-width: 1.4px; stroke-opacity: 0.412865; stroke: rgb(255, 150, 150);" marker-end="" d="M730,475, 993,638"></path><path class="link" style="stroke-width: 1.4px; stroke-opacity: 0.0782837; stroke: rgb(235, 235, 255);" marker-end="" d="M770,475, 993,638"></path><path class="link" style="stroke-width: 1.4px; stroke-opacity: 0.579726; stroke: rgb(107, 107, 255);" marker-end="" d="M810,475, 993,638"></path><path class="link" style="stroke-width: 1.4px; stroke-opacity: 0.00194483; stroke: rgb(255, 255, 255);" marker-end="" d="M850,475, 993,638"></path><path class="link" style="stroke-width: 1.4px; stroke-opacity: 0.104555; stroke: rgb(255, 228, 228);" marker-end="" d="M890,475, 993,638"></path><path class="link" style="stroke-width: 1.4px; stroke-opacity: 0.862164; stroke: rgb(255, 35, 35);" marker-end="" d="M930,475, 993,638"></path><path class="link" style="stroke-width: 1.4px; stroke-opacity: 0.185341; stroke: rgb(208, 208, 255);" marker-end="" d="M970,475, 993,638"></path><path class="link" style="stroke-width: 1.4px; stroke-opacity: 0.135683; stroke: rgb(220, 220, 255);" marker-end="" d="M1010,475, 993,638"></path><path class="link" style="stroke-width: 1.4px; stroke-opacity: 0.481133; stroke: rgb(132, 132, 255);" marker-end="" d="M1050,475, 993,638"></path><path class="link" style="stroke-width: 1.4px; stroke-opacity: 0.634552; stroke: rgb(93, 93, 255);" marker-end="" d="M1090,475, 993,638"></path><path class="link" style="stroke-width: 1.4px; stroke-opacity: 0.194911; stroke: rgb(205, 205, 255);" marker-end="" d="M1130,475, 993,638"></path><path class="link" style="stroke-width: 1.4px; stroke-opacity: 0.963871; stroke: rgb(9, 9, 255);" marker-end="" d="M1170,475, 993,638"></path><path class="link" style="stroke-width: 1.4px; stroke-opacity: 0.617299; stroke: rgb(255, 98, 98);" marker-end="" d="M730,475, 1079,638"></path><path class="link" style="stroke-width: 1.4px; stroke-opacity: 0.0936548; stroke: rgb(255, 231, 231);" marker-end="" d="M770,475, 1079,638"></path><path class="link" style="stroke-width: 1.4px; stroke-opacity: 0.28777; stroke: rgb(182, 182, 255);" marker-end="" d="M810,475, 1079,638"></path><path class="link" style="stroke-width: 1.4px; stroke-opacity: 0.809922; stroke: rgb(255, 48, 48);" marker-end="" d="M850,475, 1079,638"></path><path class="link" style="stroke-width: 1.4px; stroke-opacity: 0.159918; stroke: rgb(214, 214, 255);" marker-end="" d="M890,475, 1079,638"></path><path class="link" style="stroke-width: 1.4px; stroke-opacity: 0.996282; stroke: rgb(1, 1, 255);" marker-end="" d="M930,475, 1079,638"></path><path class="link" style="stroke-width: 1.4px; stroke-opacity: 0.484285; stroke: rgb(255, 132, 132);" marker-end="" d="M970,475, 1079,638"></path><path class="link" style="stroke-width: 1.4px; stroke-opacity: 0.673243; stroke: rgb(83, 83, 255);" marker-end="" d="M1010,475, 1079,638"></path><path class="link" style="stroke-width: 1.4px; stroke-opacity: 0.12114; stroke: rgb(224, 224, 255);" marker-end="" d="M1050,475, 1079,638"></path><path class="link" style="stroke-width: 1.4px; stroke-opacity: 0.660425; stroke: rgb(87, 87, 255);" marker-end="" d="M1090,475, 1079,638"></path><path class="link" style="stroke-width: 1.4px; stroke-opacity: 0.835855; stroke: rgb(255, 42, 42);" marker-end="" d="M1130,475, 1079,638"></path><path class="link" style="stroke-width: 1.4px; stroke-opacity: 0.824927; stroke: rgb(45, 45, 255);" marker-end="" d="M1170,475, 1079,638"></path><circle r="10" class="node" id="0_0" style="fill: rgb(255, 255, 255); stroke: rgb(51, 51, 51);" cx="730" cy="312"></circle><circle r="10" class="node" id="0_1" style="fill: rgb(255, 255, 255); stroke: rgb(51, 51, 51);" cx="770" cy="312"></circle><circle r="10" class="node" id="0_2" style="fill: rgb(255, 255, 255); stroke: rgb(51, 51, 51);" cx="810" cy="312"></circle><circle r="10" class="node" id="0_3" style="fill: rgb(255, 255, 255); stroke: rgb(51, 51, 51);" cx="850" cy="312"></circle><circle r="10" class="node" id="0_4" style="fill: rgb(255, 255, 255); stroke: rgb(51, 51, 51);" cx="890" cy="312"></circle><circle r="10" class="node" id="0_5" style="fill: rgb(255, 255, 255); stroke: rgb(51, 51, 51);" cx="930" cy="312"></circle><circle r="10" class="node" id="0_6" style="fill: rgb(255, 255, 255); stroke: rgb(51, 51, 51);" cx="970" cy="312"></circle><circle r="10" class="node" id="0_7" style="fill: rgb(255, 255, 255); stroke: rgb(51, 51, 51);" cx="1010" cy="312"></circle><circle r="10" class="node" id="0_8" style="fill: rgb(255, 255, 255); stroke: rgb(51, 51, 51);" cx="1050" cy="312"></circle><circle r="10" class="node" id="0_9" style="fill: rgb(255, 255, 255); stroke: rgb(51, 51, 51);" cx="1090" cy="312"></circle><circle r="10" class="node" id="0_10" style="fill: rgb(255, 255, 255); stroke: rgb(51, 51, 51);" cx="1130" cy="312"></circle><circle r="10" class="node" id="0_11" style="fill: rgb(255, 255, 255); stroke: rgb(51, 51, 51);" cx="1170" cy="312"></circle><circle r="10" class="node" id="1_0" style="fill: rgb(255, 255, 255); stroke: rgb(51, 51, 51);" cx="730" cy="475"></circle><circle r="10" class="node" id="1_1" style="fill: rgb(255, 255, 255); stroke: rgb(51, 51, 51);" cx="770" cy="475"></circle><circle r="10" class="node" id="1_2" style="fill: rgb(255, 255, 255); stroke: rgb(51, 51, 51);" cx="810" cy="475"></circle><circle r="10" class="node" id="1_3" style="fill: rgb(255, 255, 255); stroke: rgb(51, 51, 51);" cx="850" cy="475"></circle><circle r="10" class="node" id="1_4" style="fill: rgb(255, 255, 255); stroke: rgb(51, 51, 51);" cx="890" cy="475"></circle><circle r="10" class="node" id="1_5" style="fill: rgb(255, 255, 255); stroke: rgb(51, 51, 51);" cx="930" cy="475"></circle><circle r="10" class="node" id="1_6" style="fill: rgb(255, 255, 255); stroke: rgb(51, 51, 51);" cx="970" cy="475"></circle><circle r="10" class="node" id="1_7" style="fill: rgb(255, 255, 255); stroke: rgb(51, 51, 51);" cx="1010" cy="475"></circle><circle r="10" class="node" id="1_8" style="fill: rgb(255, 255, 255); stroke: rgb(51, 51, 51);" cx="1050" cy="475"></circle><circle r="10" class="node" id="1_9" style="fill: rgb(255, 255, 255); stroke: rgb(51, 51, 51);" cx="1090" cy="475"></circle><circle r="10" class="node" id="1_10" style="fill: rgb(255, 255, 255); stroke: rgb(51, 51, 51);" cx="1130" cy="475"></circle><circle r="10" class="node" id="1_11" style="fill: rgb(255, 255, 255); stroke: rgb(51, 51, 51);" cx="1170" cy="475"></circle><circle r="10" class="node" id="2_0" style="fill: rgb(255, 255, 255); stroke: rgb(51, 51, 51);" cx="821" cy="638"></circle><text class="text" dy=".35em" style="font-size: 12px;" x="1210" y="312">Input Layer ∈ ℝ¹²</text><text class="text" dy=".35em" style="font-size: 12px;" x="1210" y="475">Hidden Layer ∈ ℝ¹²</text><text class="text" dy=".35em" style="font-size: 12px;" x="1210" y="638">Output Layer ∈ ℝ⁴</text><circle r="10" class="node" id="2_1" style="fill: rgb(255, 255, 255); stroke: rgb(51, 51, 51);" cx="907" cy="638"></circle><circle r="10" class="node" id="2_2" style="fill: rgb(255, 255, 255); stroke: rgb(51, 51, 51);" cx="993" cy="638"></circle><circle r="10" class="node" id="2_3" style="fill: rgb(255, 255, 255); stroke: rgb(51, 51, 51);" cx="1079" cy="638"></circle></g><defs><marker id="arrow" viewBox="0 -5 10 10" markerWidth="7" markerHeight="7" orient="auto" refX="40"><path d="M0,-5L10,0L0,5" style="stroke: rgb(80, 80, 80); fill: none;"></path></marker></defs></svg>